<svg width="320" height="480" viewBox="0 0 320 480" xmlns="http://www.w3.org/2000/svg">
    <defs>
        <linearGradient x1="50%" y1="0%" x2="50%" y2="100%" id="a">
            <stop stop-color="#050301" offset="0%"/>
            <stop stop-color="#1B0F04" offset="100%"/>
        </linearGradient>
    </defs>
    <g fill="none" fill-rule="evenodd">
        <path fill="url(#a)" d="M0 0h320v480H0z"/>
        <g opacity=".1">
            <path fill="#591611" d="M0 480h319V0H0z"/>
            <path fill="#230700" d="m138.564 363.63-.718-2.157-.953-.271-.084-.361-.238-4.587.636-7.104.64-7.198-.16-8.634-.956-4.947-.444-1.319-.114-1.291-4.546-3.911-4.425-1.484-5.74-3.372-7.297-5.398-2.75-1.889-1.913-4.184-1.556-5.53-1.894-.957-.856-1.337-2.034-1.89-2.152-3.912-3.11-9.985-2.512-9.984-3.588-11.736-1.315-4.857-1.032-1.339 1.75-1.54.398-2.52-.637-.45-1.676.81-1.816 1.444-1.77-1.399-.16-1.124 1.354-2.968.638.09.559-.81-1.435-1.439-1.834.09-.08.63.399.72-.957 1.978-.877 1.53-.34.113-.127-3.711-.012-.36.638-.36-.08-.72-2.95.09-.32.63.72.629v1.62l-.071 2.77-1.524-.073-1.038.901-1.274 2.249-1.994.898-2.87 1.798-2.95 2.52L68 259.786l.598 2.023.217.818.142.533 1.076-.136 4.425-.675 2.153.27h3.23l1.435-.539 2.272 2.429 1.794 10.119.719 11.602.173.702 1.108 4.469h.002l1.227 4.947 2.751 11.065.12 10.929-.837 6.747 1.315 7.42 1.162 1.691.432 5.953.558 6.118 2.152 6.205.56 5.308.16 2.88-.16 2.067-.16 1.348.798 1.711.557 1.798.32 5.936v10.614l.16 1.17-1.037 1.709-.718 2.337-.399 2.881.48.539h1.372l-.019.043-.238 1.89 2.392.674 3.11-.538 1.196-.54v-1.08l-.598-2.294.542-.333.773-.477.837-1.618-1.075-3.643-.838-10.658-.36-6.882.959-1.484-.48-3.643 1.197-11.064 1.435-4.856.533.446 2.696 2.253 8.132 2.157 1.076-.368.878 6.934 2.312 7.196 1.117 3.96-.558 3.058-2.553 12.231-.877 4.768-.877 1.258-1.116 2.788.877.72h2.79l1.357-.45v-1.978l.636-1.348.48-.811-.638-2.158.4-4.138 2.311-7.375 2.153-5.307.492-1.914.264 2.094 1.198 3.371-.478 7.422-.838 8.095-.48 1.754-1.314 2.293-.024.101-.694 2.868 2.512.405 3.111.404.716-1.348-.599-2.97 1.197-.942v-3.644l-.12-5.397.479-7.285.067-.336v-.001l1.009-5.06-1.314-4.183.118-10.525 2.512-10.254.596-6.978.36 3.337-.477 5.396-.639 6.476-.08 5.129.68 3.177-.36.87.479 3.146.797 3.509 1.037 3.868.078 4.855-.477 2.43 1.274-1.887.799-6.027-.399-4.23-1.037-4.496M247.933 255.512l-2.87-1.798-1.995-.898-1.273-2.249-1.038-.9-1.524.072-.07-2.77v-1.62l.717-.63-.32-.629-2.95-.09-.077.72.637.36-.013.36h.001l-.128 3.711-.339-.114-.878-1.53-.956-1.978.4-.72-.082-.63-1.834-.089-1.434 1.44.558.81.637-.091 1.356 2.968-.158 1.124-1.772 1.399-1.817-1.443-1.674-.811-.637.45.397 2.52 1.75 1.54-1.032 1.339-1.316 4.857-3.588 11.736-2.512 9.984-3.109 9.985-2.152 3.913-2.034 1.89-.856 1.336-1.894.957-1.555 5.53-1.915 4.184-2.75 1.889-7.295 5.398-5.742 3.372-4.424 1.484-4.545 3.91-.114 1.292-.444 1.319-.959 4.947-.157 8.634.64 7.198.635 7.104-.238 4.587-.083.36-.954.272-.716 2.157-1.039 4.496-.399 4.23.799 6.027 1.275 1.888-.479-2.43.079-4.856 1.037-3.868.797-3.509.48-3.147-.359-.869.678-3.177-.08-5.13-.64-6.475-.476-5.396.36-3.337.597 6.978 2.511 10.254.118 10.525-1.314 4.183 1.01 5.06.066.337.478 7.285-.119 5.397v3.644l1.197.942-.6 2.97.717 1.348 3.111-.404 2.512-.405-.693-2.868-.025-.1-1.315-2.294-.479-1.754-.837-8.095-.478-7.422 1.197-3.371.264-2.094.493 1.914 2.153 5.307 2.31 7.375.4 4.138-.637 2.158.479.811.636 1.348v1.978l1.356.45h2.79l.88-.72-1.119-2.788-.876-1.258-.876-4.768-2.553-12.231-.558-3.059 1.116-3.959 2.312-7.196.879-6.934 1.074.368 8.134-2.157 2.694-2.253.534-.446 1.436 4.856 1.196 11.064-.402 3.057h-.001l-.078.586.959 1.484-.36 6.882-.836 10.658-1.076 3.643.836 1.618.775.477.541.333-.599 2.293v1.08l1.197.54 3.11.54 2.391-.674-.238-1.89-.019-.044h1.373l.48-.539-.4-2.88-.718-2.338-1.036-1.71.16-1.169v-10.614l.32-5.936.556-1.798.798-1.71-.16-1.349-.16-2.067.16-2.88.56-5.308 2.152-6.205.559-6.118.433-5.953 1.16-1.691 1.317-7.42-.84-6.747.121-10.929 3.98-16.013v.001l1.109-4.47.173-.701.592-9.552.128-2.05 1.792-10.12 2.273-2.428 1.435.54h3.23l2.154-.27 4.424.674 1.075.136.143-.533.041-.157.176-.66.598-2.024-1.116-1.754-2.951-2.52M96.663 217.797s-2.43 7.06-3.852 7.526c-1.426.475-6.445 1.696-6.445 1.696s-3.347-.846-4.016-2.071c-.67-1.223-2.846-10.82-2.262-11.95.588-1.127 3.686-4.046 5.69-3.761 2.01.279 4.353 2.07 4.353 2.07s1.759 6.021 1.254 6.961c-.499.942-4.096 2.352-4.685 2.072-.585-.284-1.758-4.328-1.758-4.328s-1.589-.66-2.006.657c-.42 1.315.667 5.741 1.336 6.211.67.468 7.202 0 8.622-2.634 1.425-2.637.419-10.917-.25-12.8-.67-1.882-3.098-2.446-3.098-2.446s-10.042.846-11.885 5.645c-1.839 4.802.585 13.457 2.093 15.622 1.508 2.165 8.285 4.515 11.466 3.482 3.181-1.035 6.863-9.13 6.779-10.822-.082-1.69-1.336-1.13-1.336-1.13"/>
            <path d="M96 215.491c0 1.21 1.4 1.957 1.87 1.21.466-.744-.47-2.701-.47-2.701s-1.4.279-1.4 1.491M95 211.71c0 .853 1.681 1.706 1.958 1.067.28-.64-.934-2.777-.934-2.777-.744.532-1.024.854-1.024 1.71M95.595 207c-.973.409-.73 3.448.565 2.944 1.294-.51.73-1.319.644-1.929-.077-.606-1.21-1.015-1.21-1.015M94.838 196.022c-.984-.4-4.756 4.672-4.756 4.672L90 201.787s5.903 2.487 5.986 2.188c.08-.298-.162-7.56-1.148-7.953M83.285 195.006C82.833 194.74 82 203 82 203s2.724-1.244 3.78-1.332c1.06-.087-2.04-6.395-2.495-6.662M76.14 199l-1.14.458s.79 6.706 1.224 7.443c.44.735 2.894-2.849 3.684-3.217.788-.368-3.768-4.684-3.768-4.684M68.85 210.379c-1.006.475-.84.571-.84 1.146 0 .568 6.484 4.471 6.15 3.234-.34-1.237.84-6.759.84-6.759s-5.136 1.905-6.15 2.379M73.778 218s-5.301 4.873-4.736 5.254c.56.383 6.34.954 5.938.669-.402-.286-1.202-5.923-1.202-5.923M76.79 226s-1.362 5.339-1.602 6.697c-.238 1.358-.4 3.106.483 3.298.88.193 5.846-5.628 5.285-5.824-.563-.191-4.165-4.171-4.165-4.171M87.83 233.491C86.86 233.307 83 232 83 232s1.14 7.272 1.754 6.992c.617-.277 4.04-5.315 3.076-5.5M94.122 232.052c-.622.692-4.122.99-4.122.99s1.402 2.266 1.632 2.76c.235.49 2.955 2.461 3.27 2.169.31-.297-.158-6.607-.78-5.919M100.48 224.703c-.501-.351-1.25-.703-1.25-.703s-1.332 5.703-2.165 6.406c-.833.701 6.579.878 6.912 0 .333-.877-2.996-5.35-3.498-5.703M99 214s.848 5.915.594 6.825c-.253.911 5.683-2.001 6.363-2.731C106.636 217.37 99 214 99 214M98 205.016s1.341 5.592 1.341 6.75c0 1.157 5.502-2.317 5.656-2.796.16-.485-6.997-4.246-6.997-3.954M239.663 217.797s-2.43 7.06-3.852 7.526c-1.426.475-6.444 1.696-6.444 1.696s-3.348-.846-4.018-2.071c-.67-1.223-2.845-10.82-2.261-11.95.588-1.127 3.685-4.046 5.69-3.761 2.01.279 4.353 2.07 4.353 2.07s1.759 6.021 1.254 6.961c-.498.942-4.096 2.352-4.685 2.072-.585-.284-1.758-4.328-1.758-4.328s-1.59-.66-2.007.657c-.42 1.315.668 5.741 1.337 6.211.67.468 7.202 0 8.622-2.634 1.425-2.637.419-10.917-.25-12.8-.67-1.882-3.097-2.446-3.097-2.446s-10.043.846-11.886 5.645c-1.839 4.802.585 13.457 2.093 15.622 1.508 2.165 8.285 4.515 11.467 3.482 3.18-1.035 6.862-9.13 6.778-10.822-.082-1.69-1.336-1.13-1.336-1.13" fill="#230700"/>
            <path d="M239 215.491c0 1.21 1.401 1.957 1.87 1.21.466-.744-.469-2.701-.469-2.701s-1.401.279-1.401 1.491M238 211.71c0 .853 1.681 1.706 1.958 1.067.28-.64-.933-2.777-.933-2.777-.744.532-1.025.854-1.025 1.71M238.595 207c-.973.409-.73 3.448.565 2.944 1.294-.51.73-1.319.645-1.929-.079-.606-1.21-1.015-1.21-1.015M238.838 196.022c-.984-.4-4.756 4.672-4.756 4.672l-.082 1.093s5.903 2.487 5.986 2.188c.08-.298-.163-7.56-1.148-7.953M227.285 195.006C226.834 194.74 226 203 226 203s2.724-1.244 3.78-1.332c1.06-.087-2.04-6.395-2.495-6.662M219.14 199l-1.14.458s.79 6.706 1.224 7.443c.44.735 2.894-2.849 3.684-3.217.788-.368-3.768-4.684-3.768-4.684M211.85 210.379c-1.006.475-.84.571-.84 1.146 0 .568 6.485 4.471 6.15 3.234-.338-1.237.84-6.759.84-6.759s-5.135 1.905-6.15 2.379M217.778 218s-5.301 4.873-4.736 5.254c.56.383 6.34.954 5.938.669-.402-.286-1.202-5.923-1.202-5.923M219.79 226s-1.361 5.34-1.602 6.697c-.238 1.359-.4 3.107.483 3.298.88.194 5.846-5.628 5.285-5.824-.563-.191-4.165-4.171-4.165-4.171M230.83 233.491C229.86 233.307 226 232 226 232s1.14 7.272 1.753 6.992c.618-.277 4.041-5.315 3.077-5.5M238.122 232.052c-.622.692-4.122.99-4.122.99s1.401 2.266 1.632 2.76c.236.49 2.956 2.461 3.27 2.169.31-.297-.159-6.607-.78-5.919M243.48 224.703c-.501-.351-1.25-.703-1.25-.703s-1.333 5.703-2.165 6.406c-.833.701 6.579.878 6.912 0 .332-.877-2.996-5.35-3.498-5.703M243 214s.847 5.915.594 6.825c-.253.911 5.682-2.001 6.363-2.731C250.635 217.37 243 214 243 214M242 205.016s1.341 5.592 1.341 6.75c0 1.157 5.502-2.317 5.656-2.796.16-.485-6.997-4.246-6.997-3.954M225.78 157.251c-3.181 1.035-6.864 9.13-6.779 10.822.081 1.69 1.335 1.13 1.335 1.13s2.431-7.059 3.853-7.526c1.425-.475 6.444-1.696 6.444-1.696s3.348.846 4.017 2.072c.67 1.222 2.846 10.818 2.262 11.949-.587 1.127-3.686 4.046-5.69 3.761-2.011-.279-4.353-2.07-4.353-2.07s-1.76-6.02-1.255-6.962c.5-.94 4.097-2.35 4.687-2.07.585.283 1.756 4.327 1.756 4.327s1.59.66 2.007-.656c.42-1.316-.668-5.742-1.337-6.212-.67-.469-7.201 0-8.621 2.634-1.427 2.637-.42 10.916.25 12.798.67 1.884 3.097 2.448 3.097 2.448s10.043-.846 11.886-5.646c1.839-4.8-.585-13.457-2.093-15.621-1.507-2.165-8.285-4.515-11.467-3.482" fill="#230700"/>
            <path d="M219.13 170.298c-.466.745.468 2.702.468 2.702s1.402-.279 1.402-1.491c0-1.21-1.402-1.957-1.87-1.21M220.042 173.224c-.281.64.933 2.776.933 2.776.744-.532 1.025-.854 1.025-1.71 0-.852-1.681-1.707-1.958-1.066M220.84 177.056c-1.294.51-.73 1.32-.645 1.929.079.606 1.21 1.015 1.21 1.015.973-.409.73-3.448-.565-2.944M221.014 183.025c-.08.298.162 7.559 1.147 7.953.984.399 4.757-4.672 4.757-4.672l.082-1.092s-5.903-2.488-5.986-2.189M233.716 191.994C234.167 192.26 235 184 235 184s-2.724 1.244-3.78 1.332c-1.06.087 2.04 6.395 2.496 6.662M237.092 183.316c-.788.368 3.768 4.684 3.768 4.684l1.14-.457s-.789-6.707-1.224-7.444c-.438-.734-2.893 2.85-3.684 3.217M243.84 172.24c.34 1.238-.84 6.76-.84 6.76s5.136-1.905 6.15-2.38c1.006-.475.84-.571.84-1.145 0-.568-6.485-4.471-6.15-3.234M242.02 163.077c.402.286 1.202 5.923 1.202 5.923s5.3-4.873 4.736-5.255c-.56-.382-6.34-.953-5.938-.668M241.329 151.005c-.88-.193-5.846 5.628-5.285 5.824.562.191 4.166 4.171 4.166 4.171s1.362-5.339 1.602-6.697c.239-1.358.4-3.106-.483-3.298M232.246 148.008c-.617.277-4.041 5.315-3.075 5.5.967.185 4.829 1.492 4.829 1.492s-1.142-7.273-1.754-6.992M222.098 149.03c-.31.296.159 6.607.78 5.917.622-.69 4.122-.988 4.122-.988s-1.402-2.266-1.633-2.76c-.235-.49-2.955-2.463-3.269-2.17M213.023 156.595c-.333.876 2.995 5.35 3.498 5.702.5.352 1.25.703 1.25.703s1.332-5.704 2.164-6.405c.833-.702-6.58-.88-6.912 0M217.407 166.175c.253-.911-5.683 2.002-6.364 2.732C210.364 169.63 218 173 218 173s-.847-5.916-.593-6.825M212.003 178.03c-.161.485 6.997 4.246 6.997 3.954 0 0-1.341-5.593-1.341-6.75s-5.5 2.317-5.656 2.796M82.779 157.251c-3.18 1.035-6.862 9.13-6.778 10.822.081 1.69 1.336 1.13 1.336 1.13s2.43-7.059 3.851-7.526c1.427-.475 6.445-1.696 6.445-1.696s3.348.846 4.017 2.072c.67 1.222 2.845 10.818 2.262 11.949-.588 1.127-3.685 4.046-5.69 3.761-2.01-.279-4.353-2.07-4.353-2.07s-1.76-6.02-1.254-6.962c.497-.94 4.097-2.35 4.685-2.07.585.283 1.758 4.327 1.758 4.327s1.588.66 2.006-.656c.42-1.316-.667-5.742-1.337-6.212-.67-.469-7.2 0-8.621 2.634-1.426 2.637-.42 10.916.25 12.798.67 1.884 3.096 2.448 3.096 2.448s10.043-.846 11.887-5.646c1.84-4.8-.585-13.457-2.093-15.621-1.507-2.165-8.285-4.515-11.467-3.482" fill="#230700"/>
            <path d="M76.13 170.298c-.466.745.469 2.702.469 2.702S78 172.721 78 171.509c0-1.21-1.401-1.957-1.87-1.21M77.042 173.224c-.28.64.933 2.776.933 2.776.745-.532 1.025-.854 1.025-1.71 0-.852-1.68-1.707-1.958-1.066M77.84 177.056c-1.294.51-.73 1.32-.645 1.929.078.606 1.21 1.015 1.21 1.015.973-.409.73-3.448-.565-2.944M78.014 183.025c-.08.298.162 7.559 1.148 7.953.983.399 4.756-4.672 4.756-4.672l.082-1.092s-5.903-2.488-5.986-2.189M89.715 191.994C90.167 192.26 91 184 91 184s-2.723 1.244-3.78 1.332c-1.06.087 2.039 6.395 2.495 6.662M94.092 183.316c-.788.368 3.768 4.684 3.768 4.684l1.14-.457s-.789-6.707-1.224-7.444c-.439-.734-2.894 2.85-3.684 3.217M99.84 172.24c.339 1.238-.84 6.76-.84 6.76s5.135-1.905 6.15-2.38c1.006-.475.84-.571.84-1.145 0-.568-6.485-4.471-6.15-3.234M98.02 163.077c.402.286 1.202 5.923 1.202 5.923s5.301-4.873 4.736-5.255c-.56-.382-6.34-.953-5.938-.668M98.33 151.005c-.881-.193-5.846 5.628-5.286 5.824.563.191 4.165 4.171 4.165 4.171s1.363-5.339 1.603-6.697c.238-1.358.4-3.106-.482-3.298M89.247 148.008c-.617.277-4.041 5.315-3.077 5.5C87.14 153.694 91 155 91 155s-1.14-7.273-1.753-6.992M78.099 149.03c-.311.296.157 6.607.778 5.917.623-.69 4.123-.988 4.123-.988s-1.402-2.266-1.633-2.76c-.236-.49-2.955-2.463-3.268-2.17M70.023 156.595c-.333.876 2.996 5.35 3.498 5.702.5.352 1.25.703 1.25.703s1.333-5.704 2.164-6.405c.833-.702-6.58-.88-6.912 0M73.406 166.175c.254-.911-5.683 2.002-6.363 2.732C66.364 169.63 74 173 74 173s-.848-5.916-.594-6.825M68.003 178.03c-.16.485 6.997 4.246 6.997 3.954 0 0-1.341-5.593-1.341-6.75s-5.5 2.317-5.656 2.796M144.529 129.975l-1.694.047-.424.355-.098.267-5.893-6.174-3.126-8.095-2.842-10.547-3.93-6.068-3.05-2.954-5.006-2.788-2.062-.256-6.085.729-6.348.19-10.96-.621-.037-.002-1.686-.97-1.415-1.926-1.58-1.148-2.573-2.95-4.049-4.097-3.83-4.693-2.083-1.094-.343-.18-3.811.567-6.096 2.104-.696 1.431-.434 1.729.787 1.203-1.172 1.365-1.597 1.662-.374.715-3.965 4.064-.057.599.735 1.14.625 1.201.59.438-.075-.015.195.314.21.01.132.456.757 1.62.793-.051 1.845-.912 1.072-.531 1.31 1.925-.01 1.792.18 5.323-.018.078-.255 1.175.632.424 1.008-.47.834 2.039.201 1.496.79.543.739.366-.377.954-.06 1.254.319-.414.53.003.045 1.375.414 1.199.373-.295.792.066.52 1.737 1.27 2.397.925 1.746 1.21 1.146 1.108 2.258.041.082.177 5.501.118 6.7-.644 1.488-1.806 1.242-1.81 2.198.047.837 1.097.103.277.027.26.539 4.971.041 1.908-.643.098-1.435 2.767.022 1.382-.948.28-2.447.955-.89.121-2.39-.572-1.679-.069-5.92.866-3.58 3.123.024 3.54.686 1.957-.284.855-1.427 2.01-.284 4.187-1.283 4.456-2.118 3.552-1.347 3.539.924 1.312 1.23v-.002l.105.1 1.714 5.155 1.293 4.793 3.144 4.748.045 1.435-4.42 4.749-1.32.048-.793-.305-1.114.829-.637.235-.199.29h-.001l-.583.854h.001l-.233.341-.27.776 2.906.621 2.432.138 3.23-.99 3.464-4.039 3.679-4.635-.936-2.937-.15-2.561 1.579 2.452.93 3.356-1.875 4.171-1.218.349-1.218.051-1.165.23-.8 1.249-.38 1.61 2.271.496 3.702-.03 2.176-1.238 1.73-5.965 1.967-1.897.327-1.613-.73-1.62-2.3-4.443-2.643-9.227.029-4.484-.235-3.136 2.066 6.795 2.697 8.274 4.15 4.636 3.145 2.873-.096.26 1.57 2.523 1.847.732 2.489-.4 2.274-.1-1.258-1.983-4.213-2.784M253.978 87.776l-.375-.715-1.596-1.662-1.172-1.365.788-1.203-.435-1.729-.696-1.43-6.096-2.105-3.81-.567-.344.18-2.082 1.094-3.831 4.693-4.05 4.098-2.57 2.95-1.581 1.147-1.415 1.926-1.688.97-.036.001v.001l-10.96.622-6.347-.191-6.086-.729-2.06.256-5.007 2.788-3.051 2.954-3.93 6.068-2.843 10.547-3.125 8.095-5.892 6.174-.099-.267-.424-.355-1.694-.047-4.213 2.784-1.258 1.983 2.274.1 2.488.4 1.849-.732 1.569-2.523-.096-.26 3.145-2.873 4.151-4.636 2.697-8.274 2.066-6.795-.237 3.136.03 4.484-2.644 9.227-2.299 4.443-.73 1.62.328 1.613 1.967 1.897 1.728 5.965 2.176 1.238 3.704.03 2.27-.495-.38-1.611-.8-1.249-1.165-.23-1.217-.051-1.22-.349-1.875-4.171.931-3.356 1.58-2.452-.15 2.561-.937 2.937 3.679 4.635 3.463 4.038 3.231.991 2.432-.138 2.906-.621-.27-.776-.234-.342.002.001-.583-.853h-.002l-.197-.29-.638-.236-1.115-.83-.792.306-1.32-.048-4.42-4.749.044-1.435 3.146-4.748 1.292-4.793 1.715-5.155.104-.1v.001l1.313-1.229 3.54-.924 3.55 1.347 4.457 2.118 4.186 1.283 2.01.284.856 1.427 1.957.284 3.54-.686 3.122-.024.866 3.58-.068 5.92-.572 1.678.12 2.391.956.89.28 2.447 1.381.948 2.767-.022.099 1.435 1.906.643 4.972-.041.26-.54.278-.026 1.097-.103.046-.837-1.81-2.198-1.806-1.242-.643-1.488.117-6.7.178-5.501.04-.083v.001l1.11-2.258 1.209-1.146 2.194-4.143.521-1.737.791-.066.373.295.415-1.199.045-1.375.53-.003.32.414-.061-1.254-.378-.954.739-.366.79-.543.203-1.496.833-2.04 1.009.47.63-.423-.254-1.175-.018-.078.18-5.323-.01-1.792 1.309-1.925 1.073.53v.001l1.845.912.792.052.757-1.62.133-.457.21-.01.194-.314-.076.015.59-.438.626-1.2.735-1.141-.057-.599-3.965-4.064M112.727 70.284s-2.316 6.778-3.669 7.226c-1.358.456-6.137 1.628-6.137 1.628s-3.188-.812-3.826-1.988c-.637-1.174-2.71-10.387-2.154-11.472.56-1.082 3.51-3.885 5.419-3.61 1.915.268 4.146 1.986 4.146 1.986s1.675 5.781 1.194 6.684c-.475.904-3.902 2.257-4.462 1.988-.557-.272-1.675-4.154-1.675-4.154s-1.512-.634-1.91.63c-.4 1.263.636 5.512 1.273 5.963.637.45 6.859 0 8.211-2.53 1.358-2.53.399-10.478-.238-12.285-.638-1.809-2.95-2.35-2.95-2.35s-9.564.812-11.32 5.42c-1.75 4.61.557 12.919 1.994 14.996 1.436 2.08 7.89 4.334 10.92 3.343 3.03-.993 6.536-8.764 6.456-10.389-.078-1.623-1.272-1.086-1.272-1.086" fill="#230700"/>
            <path d="M111 67.491c0 1.21 1.4 1.957 1.87 1.21.466-.744-.47-2.701-.47-2.701s-1.4.278-1.4 1.491" fill="#230700"/>
            <path d="M111 64.71c0 .853 1.68 1.707 1.958 1.066.28-.64-.934-2.776-.934-2.776-.744.532-1.024.853-1.024 1.71M111.594 59c-.972.41-.729 3.447.566 2.944 1.294-.51.73-1.32.645-1.929-.078-.606-1.21-1.015-1.21-1.015M110.838 49.02c-.984-.35-4.756 4.087-4.756 4.087l-.082.956s5.903 2.177 5.986 1.915c.08-.26-.163-6.614-1.148-6.958M100.285 47.006C99.833 46.74 99 55 99 55s2.724-1.244 3.78-1.332c1.06-.087-2.04-6.395-2.495-6.662M92.14 52l-1.14.458s.79 6.706 1.225 7.443c.439.734 2.893-2.849 3.683-3.217.788-.368-3.767-4.684-3.767-4.684M84.85 62.38c-1.006.474-.84.57-.84 1.144 0 .569 6.484 4.472 6.15 3.236C89.82 65.522 91 60 91 60s-5.136 1.905-6.15 2.38M90.778 70s-5.3 4.873-4.736 5.255c.56.382 6.34.954 5.938.668-.402-.286-1.202-5.923-1.202-5.923M92.79 78s-1.362 4.805-1.602 6.027c-.238 1.223-.4 2.796.483 2.969.88.174 5.846-5.065 5.285-5.242C96.394 81.582 92.79 78 92.79 78M103.83 84.492C102.86 84.307 99 83 99 83s1.14 7.272 1.753 6.992c.618-.276 4.041-5.315 3.077-5.5M110.122 84.044c-.622.575-4.122.823-4.122.823s1.401 1.89 1.633 2.3c.235.41 2.955 2.052 3.268 1.808.311-.247-.157-5.506-.78-4.931M115.479 76.703c-.5-.352-1.25-.703-1.25-.703s-1.332 5.704-2.164 6.406c-.833.7 6.58.879 6.912 0 .333-.877-2.996-5.352-3.498-5.703M115 66s.848 5.915.594 6.825c-.254.911 5.682-2.001 6.363-2.731C122.636 69.37 115 66 115 66M114 57.016s1.34 5.592 1.34 6.75c0 1.156 5.502-2.317 5.657-2.796.161-.485-6.997-4.245-6.997-3.954M213.79 69.773s-2.198 6.495-3.485 6.924c-1.29.437-5.83 1.56-5.83 1.56s-3.03-.779-3.635-1.905c-.606-1.125-2.575-9.954-2.047-10.994.533-1.037 3.335-3.723 5.148-3.46 1.82.256 3.94 1.904 3.94 1.904s1.59 5.54 1.135 6.405c-.452.867-3.708 2.162-4.24 1.905-.53-.26-1.59-3.98-1.59-3.98s-1.437-.608-1.816.603c-.38 1.21.604 5.282 1.21 5.714.606.431 6.515 0 7.8-2.424 1.29-2.425.38-10.042-.226-11.774-.606-1.732-2.802-2.251-2.802-2.251s-9.087.778-10.754 5.194c-1.664 4.417.53 12.38 1.893 14.372 1.364 1.992 7.497 4.153 10.375 3.203 2.878-.952 6.21-8.4 6.133-9.956-.074-1.555-1.208-1.04-1.208-1.04" fill="#230700"/>
            <path d="M213 67.491c0 1.21 1.4 1.957 1.87 1.21.466-.745-.47-2.701-.47-2.701s-1.4.279-1.4 1.491M213 64.14c0 .569 1.68 1.138 1.958.711.28-.427-.933-1.851-.933-1.851-.745.355-1.025.569-1.025 1.14M212.594 59c-.972.408-.729 3.448.566 2.944 1.295-.51.73-1.32.644-1.93-.078-.606-1.21-1.014-1.21-1.014M212.838 50.02c-.984-.35-4.756 4.087-4.756 4.087l-.082.956s5.904 2.177 5.986 1.915c.08-.26-.162-6.614-1.148-6.958M202.285 48.006C201.833 47.74 201 56 201 56s2.724-1.244 3.78-1.332c1.061-.088-2.04-6.395-2.495-6.662M194.912 52l-.912.457s.632 6.707.98 7.444c.35.735 2.314-2.85 2.947-3.216.63-.369-3.015-4.685-3.015-4.685M187.729 63.04c-.862.407-.72.489-.72.981 0 .487 5.558 3.833 5.27 2.773C191.99 65.734 193 61 193 61s-4.401 1.633-5.271 2.04M193.778 70s-5.302 4.06-4.736 4.38c.56.317 6.34.794 5.938.555-.402-.238-1.202-4.935-1.202-4.935M195.79 77s-1.362 4.805-1.602 6.027c-.238 1.223-.4 2.796.483 2.969.88.174 5.845-5.066 5.285-5.243-.563-.17-4.166-3.753-4.166-3.753M204.864 83.49C204.089 83.308 201 82 201 82s.912 7.272 1.403 6.992c.494-.277 3.233-5.316 2.46-5.501M212.123 83.044c-.623.575-4.123.824-4.123.824s1.402 1.888 1.633 2.3c.236.409 2.954 2.052 3.268 1.807.312-.247-.157-5.505-.778-4.931M217.479 75.703c-.5-.352-1.249-.703-1.249-.703s-1.333 5.704-2.165 6.406c-.833.701 6.579.878 6.912 0 .333-.877-2.996-5.35-3.498-5.703M217 66s.725 5.915.508 6.825c-.217.911 4.873-2.002 5.455-2.731C223.545 69.37 217 66 217 66M215 58.014s1.34 4.793 1.34 5.785 5.502-1.985 5.657-2.396c.16-.416-6.997-3.64-6.997-3.39M197.134 12.231c-2.878.952-6.208 8.4-6.133 9.956.075 1.555 1.21 1.04 1.21 1.04s2.199-6.495 3.484-6.925c1.29-.436 5.831-1.56 5.831-1.56s3.028.78 3.634 1.906c.606 1.124 2.575 9.954 2.046 10.995-.531 1.035-3.334 3.722-5.148 3.46-1.82-.258-3.939-1.905-3.939-1.905s-1.591-5.54-1.134-6.405c.451-.867 3.707-2.162 4.24-1.905.53.26 1.59 3.98 1.59 3.98s1.437.608 1.815-.604c.379-1.21-.605-5.281-1.21-5.714-.605-.43-6.516 0-7.8 2.424-1.29 2.426-.38 10.043.227 11.775.605 1.732 2.801 2.251 2.801 2.251s9.087-.778 10.754-5.194c1.664-4.417-.53-12.38-1.893-14.372-1.365-1.992-7.497-4.153-10.375-3.203" fill="#230700"/>
            <path d="M190.13 24.298c-.466.745.468 2.702.468 2.702S192 26.72 192 25.509c0-1.21-1.402-1.957-1.87-1.21M191.042 28.149c-.281.427.933 1.851.933 1.851.744-.355 1.025-.569 1.025-1.14 0-.568-1.68-1.138-1.958-.711M191.84 31.056c-1.295.51-.73 1.32-.645 1.93.078.606 1.21 1.014 1.21 1.014.973-.408.73-3.449-.565-2.944M192.014 37.022c-.08.26.162 6.614 1.148 6.958.984.35 4.755-4.087 4.755-4.087l.083-.956s-5.903-2.177-5.986-1.915M203.715 44.994C204.167 45.262 205 37 205 37s-2.724 1.244-3.78 1.332c-1.06.088 2.04 6.395 2.495 6.662M207.073 36.316c-.63.367 3.014 4.684 3.014 4.684l.913-.458s-.632-6.707-.98-7.443c-.35-.735-2.315 2.849-2.947 3.217M213.72 26.206C214.01 27.266 213 32 213 32s4.402-1.633 5.271-2.04c.862-.407.72-.489.72-.981 0-.488-5.558-3.833-5.271-2.773M211.02 18.065c.401.238 1.202 4.935 1.202 4.935s5.301-4.06 4.736-4.38c-.56-.317-6.34-.794-5.938-.555M211.329 7.004c-.879-.174-5.846 5.066-5.285 5.242.562.173 4.167 3.754 4.167 3.754s1.36-4.805 1.6-6.027c.24-1.223.401-2.796-.482-2.969M202.596 4.008c-.493.277-3.231 5.316-2.46 5.501C200.91 9.693 204 11 204 11s-.913-7.272-1.404-6.992M193.099 5.025c-.311.247.158 5.505.78 4.931.62-.575 4.121-.824 4.121-.824s-1.401-1.888-1.632-2.3c-.236-.408-2.956-2.052-3.27-1.807M185.023 11.595c-.332.876 2.996 5.35 3.498 5.702.5.351 1.25.703 1.25.703s1.332-5.704 2.164-6.405c.833-.702-6.579-.88-6.912 0M188.49 20.175c.218-.911-4.87 2.002-5.453 2.73C182.455 23.63 189 27 189 27s-.727-5.915-.51-6.825M183.003 32.597c-.16.416 6.997 3.64 6.997 3.39 0 0-1.34-4.794-1.34-5.786s-5.502 1.986-5.657 2.396M98.457 13.241c-3.03.993-6.536 8.765-6.456 10.388.077 1.623 1.272 1.087 1.272 1.087s2.315-6.778 3.669-7.226c1.358-.456 6.138-1.628 6.138-1.628s3.188.812 3.825 1.988c.638 1.174 2.71 10.387 2.154 11.472-.56 1.081-3.51 3.884-5.418 3.611-1.916-.268-4.146-1.987-4.146-1.987s-1.675-5.78-1.195-6.684c.474-.904 3.901-2.256 4.462-1.988.557.272 1.674 4.154 1.674 4.154s1.514.634 1.91-.63c.4-1.264-.635-5.511-1.272-5.963-.638-.45-6.859 0-8.211 2.529-1.358 2.532-.399 10.48.238 12.286.638 1.809 2.95 2.35 2.95 2.35s9.564-.812 11.32-5.42c1.75-4.61-.558-12.919-1.994-14.996-1.435-2.079-7.89-4.334-10.92-3.343" fill="#230700"/>
            <path d="M92.13 25.298c-.466.746.47 2.702.47 2.702s1.4-.279 1.4-1.492c0-1.21-1.4-1.956-1.87-1.21M93.042 29.224c-.28.64.933 2.776.933 2.776.744-.532 1.025-.854 1.025-1.71 0-.853-1.68-1.707-1.958-1.066M93.84 32.056c-1.295.51-.73 1.32-.645 1.929.08.607 1.21 1.015 1.21 1.015.973-.408.73-3.448-.565-2.944M94.014 38.022c-.08.26.163 6.614 1.148 6.958.983.35 4.757-4.087 4.757-4.087l.081-.957s-5.903-2.176-5.986-1.914M105.715 46.994C106.167 47.26 107 39 107 39s-2.724 1.244-3.78 1.333c-1.061.087 2.04 6.394 2.495 6.66M109.092 38.315c-.788.369 3.768 4.685 3.768 4.685l1.14-.459s-.79-6.706-1.225-7.442c-.438-.734-2.893 2.849-3.683 3.216M115.84 27.241C116.18 28.477 115 34 115 34s5.135-1.906 6.15-2.38c1.005-.475.84-.57.84-1.145 0-.568-6.484-4.472-6.15-3.234M114.02 18.077c.402.286 1.202 5.923 1.202 5.923s5.301-4.873 4.736-5.255c-.56-.382-6.34-.953-5.938-.668M114.33 7.004c-.881-.174-5.846 5.066-5.286 5.242.563.173 4.165 3.754 4.165 3.754s1.363-4.805 1.603-6.027c.238-1.223.4-2.796-.483-2.969M105.247 4.008c-.618.276-4.041 5.315-3.077 5.5C103.14 9.694 107 11 107 11s-1.141-7.273-1.753-6.992M95.098 6.025c-.31.246.16 5.505.78 4.931.622-.576 4.122-.824 4.122-.824s-1.401-1.888-1.633-2.3c-.235-.409-2.955-2.052-3.269-1.807M86.023 12.595c-.333.876 2.996 5.35 3.497 5.702.501.352 1.25.703 1.25.703s1.333-5.703 2.165-6.405c.833-.702-6.58-.88-6.912 0M90.406 21.175c.254-.911-5.683 2.001-6.363 2.73C83.364 24.63 91 28 91 28s-.848-5.915-.594-6.825M85.003 33.031c-.16.484 6.997 4.245 6.997 3.953 0 0-1.34-5.592-1.34-6.75 0-1.156-5.502 2.317-5.657 2.797M51.855 144.8l29.897.4 26.113.8 1.135-3.597-8.704-.4-25.837.119-43.797-.118H1.143L1 142v3.053l18.309-.652 32.546.4M319.599 140h-20.026l-26.072.857-35.895.857h-29.85L207 146l20.026-.858h23.804l30.228-.428h33.25l5.692-.249V140h-.401M79 30.538l1 31.103v14.875l1 10.368c1.5 1.804 2-18.03 2-18.03l-1.5-25.695-.5-28.398L81.42 0H78v8.902l1 21.636M225.365 40.834c0 1.451 1.09 24.181 1.09 24.181V95H229l-.364-25.149-.727-42.076L228.562 0h-2.943L225 18.103s.365 21.28.365 22.73M124.727 46.81v18.297L125.091 80c2.181-2.128 2.909-4.255 2.909-4.255l-.364-11.488V33.619L127.282 0H124v25.534l.727 21.276M177.667 41.236V64H180l-1-47.246L179.317 0h-1.533L177 .433l.667 40.803M288.548 396.846l-71.946-.46-34.837-.462-30.293-.462-28.021-.462-30.424.369L57.942 395H14.018L1 395.213v4.722l1.28.141 35.972-.461 46.197-.922 41.653.461h47.332l47.712.922 50.74.924 48.114-.734v-4.07l-31.452.65" fill="#230700"/>
            <path d="M65.154 165.839 65.77 144l-2.153.364s-.308 18.2-.308 19.29c0 1.092-.308 24.022-.308 24.022l1.846 35.67-.226 19.639 2.072.015.308-15.65-.616-25.114-1.23-36.397M254.273 179.556l-.364-35.186L251 144v20l1.091 28.519v29.63l-.364 21.48C253.909 244 255 244 255 244l-.727-25.185v-39.26" fill="#230700"/>
            <path fill="#230700" d="m305.966 241.417-52.256.833-45.818.833h-60.207l-52.634-1.666H48.854L10.988 241 1 241.158v3.592h31.951l43.23-.15 60.144.983 51.498.417h44.304l30.293-.834 55.285-1.25 2.295.062v-2.776l-14.034.215M2.112 33.192l.266-4.379.13-.426 1.595.803 5.705.076 3.927-1.34.914 1.038 3.25.378 1.23-.147.097 3.24-.928 1.813-1.858.605h-4.644l-1.724.904-4.111-.15-2.257-.605-1.592-1.81zm18.574-4.045 1.99.8 2.787.829 1.856-1.208 1.046-.142-.117.444-1.592 1.812-3.45 2.113h-1.858l-.662-1.36v-3.288zM3.774 142.95 6.624 144l6.235-.754 2.254-1.209-.348-28.15v.006l-.051-4.011-.927-35.024-.398-18.72-1.062-8.756.266-2.869 1.194-3.17 2.255-1.66 2.256 2.264 1.06 3.624 2.654 1.207 2.255.453.226-.596.173-.46-2.256-1.058-1.326-1.358-.531-1.962-.928-2.416 2.387-1.208 3.583-2.416 1.59-.15 2.656 1.51 1.42.74-.227.694-1.46 1.434.267 1.737 6.698 2.415 3.383-.378 4.445-2.717 5.903-.151.463-1.225h-.002l.136-.36-1.791-1.51-.927-2.868-6.567-1.585-4.313 1.434-3.317.83-2.255.905-.02.064-1.439-.668-1.593-1.66-.131-1.66 1.194-1.963.147-1.403.781-.107 2.453.755 5.176.453 3.715 2.264 5.97-1.66L51 27.379l-.218-.804-.378-1.385-1.99-1.056-4.18-.453-1.394-3.02-2.652-3.473H36.01l-5.24.453-2.124.077-3.67-1.275 3.273-.688-.34-1.27-.125-.466-3.581-1.132-1.261-1.66L21.018 11l-3.716.528-2.852.377-.728 1.963 3.05 2.113 1.305.907-2.632 1.132-.738.967-1.054-1.799-.976-.861L11 14.849l-6.567-2.49L1 11.696V143.11l2.774-.161zM51.264 25l1.585-.761L53 23h-4l2.264 2"/>
            <path fill="#230700" d="m28 14 1.325 2L31 15.5l-.977-1.07L28 14M51 40.733l1.698.267.302-.867L51.849 39 51 40.733M27 40.953 27.232 42H29l-.155-2-1.845.953M52 27.103l1.241.897.759-1.449L52.483 26 52 27.103M54 24.294l.522.706L56 24.765 55.479 24 54 24.294M318.98 31.26l-.673 2.104-1.484 1.201-2.021-.6-1.617-.601 1.348-4.958V25.55l-.095-.912.836-.214 3.503 1.878.663.327-.325.725-.135 3.906zm-8.627 1.202-3.098.902-1.808-.404.393-.497-.54-.752-.094-.08-2.196-1.873-1.886.45-1.738-.057-.352-.393.943-1.052.919-3.213 5.954.584.54 1.502 2.223.752 2.426-3.08 1.18-.301.1 1.652-.808 3.006-2.158 2.854zm-13.88-5.56-.862-1.372 2.815-.28 1.185.117-.577 1.837-1.078 1.202-1.483-1.503zM314.87 10l-1.484 1.276-2.628 1.053-4.918.15-2.898.226-2.156 1.727-1.28 1.803-5.526.15-4.582.526-1.55 1.203-2.92 1.302-.786.35-.471 2.18 2.561 1.576.874 1.879 1.888 2.253 3.436-.225 1.374-.87 1.333 3.049-1.966-.6-5.728 1.05-4.715.978-4.92.15-.256.593-.552 1.285 2.695 1.277.742 2.93 3.84 1.728 9.838.6.202 1.353 5.458-.601 1.483-3.456 1.143-.839.541.313 4.313.9h2.964l3.37 2.856 2.292 4.057v9.916l-.001 29.75-.808 26.445-.27 26.745-.297 4.962 5.495-.307V10.968L314.87 10z"/>
            <path fill="#230700" d="M283.818 22 282 23.975 283.308 25 286 23.902l-.073-.804-2.11-1.098M281.25 22l1.438-.636L283 20l-2 .909.25 1.091M301 40.25l2.411.75.589-.682L302.057 38 301 40.25M285 39l.453 1.066 1.13.934 2.417-.6-.077-1.066L285 39M275 31l2.024 1 .976-1.818-2.924-.182-.076 1M262.122 256.172c.007.238-.165 2.002.348 1.984 0 0 4.707.087 6.255.358 1.55.267 11.074 1.956 11.074 1.956s.67 10.922.391 11.411c-.28.489-2.974 1.454-5.968 2.114-2.992.656-11.463-.186-11.463-.186s-.54-3.658-.641-4.612c-.102-.953.883-5.225 1.76-5.33.879-.111 11.013-.282 11.314.028.304.309 1.142 3.958.348 4.622-.788.665-9.256 2.623-9.492 2.066-.236-.55-.046-4.39-.046-4.39l4.62-.23.018.637-3.89.208s-.03 1.517.263 1.512c.294-.012 5.79-.514 5.85-1.074.056-.562-.358-2.306-.947-2.368-.592-.056-7.118.315-7.118.315s-.352.57-.452 2.335c-.098 1.76-.17 4.398 2.186 4.56 2.354.165 10.845-.994 11.345-1.49.501-.494.175-6.959.154-7.678-.02-.715-.712-1.811-1.597-1.941-.884-.132-14.91.09-15.574.027-.662-.057-1.297.841-1.638 1.815-.34.968-.29 13.352.158 13.66.448.303 6.953 1.766 8.343 1.483 1.388-.286 13.421-.76 14.148-1.024.727-.264 1.685-2.853 1.727-6.608.044-3.759 1.204-9.629-.629-12.206-1.837-2.575-20.855-2.193-20.847-1.954M260.627 255.012c-.842-.052-2.436.06-2.594.347-.16.29.3 1.336.475 1.543.175.208 2.105.02 2.105.02s.861-1.86.014-1.91M255.006 256.172c-.075.272.59 1.828.59 1.828l1.977-.181s.81-1.32.198-1.58c-.614-.257-2.688-.347-2.765-.067M130.75 3 130 7.61v3.951l12.375-.22h15.375l13.125.659 4.125-.22-.75-8.12-43.5-.66M130 24.907l3.937.838 21.562-.21L175 27v-7.744L130 18v6.907M146.328 33 130 33.204l.38 8.59 7.974-.204 27.342.41L175 40.773v-7.16h-6.646L146.328 33M151.041 49.165S131 48.66 131 49.417l.572 9.079 23.096-1.009L175.283 59l1.717-.504-.572-7.567-25.387-1.764M130.817 12.488s-.973 1.268-.795 1.756c.176.488 1.856 1.756 1.856 1.756l1.68-.293.442-1.756L132.408 12l-1.591.488M135.645 12.762c-.374.762-.84 1.62-.56 1.81.28.19.84 1.238.84 1.238l1.957.19L139 14.762v-2.095L137.23 12s-1.212 0-1.585.762M142.373 12.227 141 13.704l.197 1.705 1.274 1.25 2.549.341.98-1.704v-2.614L144.04 12l-1.667.227M148.696 13.7 148 15.4l.608 1.2 1.566.4 1.565-.8.261-2-1.913-1.2-1.391.7M155.291 13l-1.562.666-.729 1.62.729 1.429 2.083.285 1.668-.762.52-2-.833-.667L155.29 13M159.937 12.465 159 14.21l.52 2.093 2.187.697 1.563-.58.73-2.792L161.812 12l-1.875.465M165.585 14.1 165 15.9l.975 1 1.952.1 1.073-.8v-1.8l-1.463-1.4-1.952 1.1M173 13.084l-1.455.904-.545 1.707.727 1.205 1.546.1s1.181 0 1.272-.3c.091-.302.455-2.31.455-2.31l-1.182-1.004s-.909-.603-.819-.302M130.817 27.488s-.972 1.268-.796 1.756c.177.488 1.857 1.756 1.857 1.756l1.68-.293.442-1.756L132.408 27l-1.591.488M136.645 27.762c-.373.762-.84 1.619-.56 1.81.28.19.839 1.238.839 1.238l1.957.19L140 29.762v-2.095L138.23 27s-1.212 0-1.585.762M142.372 27.227 141 28.704l.196 1.705 1.275 1.25 2.549.341.98-1.704v-2.614L144.039 27l-1.667.227M148.696 27.7 148 29.4l.608 1.2 1.566.4 1.565-.8.261-2-1.913-1.2-1.391.7M156.291 27l-1.562.667-.729 1.619.729 1.428 2.083.286 1.668-.762.52-2-.833-.667L156.29 27M160.938 27.466 160 29.209l.52 2.093 2.188.698 1.563-.582.729-2.79L162.812 27l-1.874.466M165.585 29.1 165 30.9l.975 1 1.951.1 1.074-.8v-1.8l-1.464-1.4-1.95 1.1M173 28.084l-1.454.903-.546 1.707.728 1.205 1.545.101s1.182 0 1.273-.301c.09-.302.454-2.31.454-2.31l-1.181-1.004s-.91-.602-.818-.3M130.817 43.488s-.972 1.268-.796 1.756c.177.488 1.858 1.756 1.858 1.756l1.68-.292.441-1.757L132.409 43l-1.592.488M136.644 43.762c-.372.762-.838 1.62-.559 1.81.28.19.84 1.238.84 1.238l1.956.19L140 45.762v-2.095L138.229 43s-1.212 0-1.585.762M142.373 43.227 141 44.705l.196 1.704 1.274 1.25 2.55.341.98-1.705v-2.613L144.04 43l-1.667.227M148.695 43.7 148 45.4l.609 1.2 1.565.4 1.565-.8.261-2-1.913-1.2-1.392.7M155.292 44l-1.563.667-.729 1.619.73 1.428 2.083.286 1.666-.762.521-2-.833-.667-1.875-.571M159.938 43.465 159 45.209l.521 2.094 2.187.697 1.563-.582.729-2.79L161.813 43l-1.875.465M165.586 45.1 165 46.9l.976 1 1.951.1 1.073-.8v-1.8l-1.463-1.4-1.951 1.1M173 44.084l-1.455.904-.545 1.707.727 1.204 1.545.101s1.182 0 1.273-.301c.09-.301.455-2.31.455-2.31l-1.182-1.004s-.91-.602-.819-.3M55.85 64.792l-3.017.745-3.396.425-3.113.852-1.887-.427-1.415-1.914-.189-2.447.443-2.997.784.336 2.876-1.278 4.528-.159 1.462.059.897 1.75 1.84 1.33h3.678l.035.006-.035.1-2.17 2.235-1.32 1.384zm-13.96-4.15-.943 2.766-1.603.958-2.265-.106-1.321-.745-.283-1.49.283-2.98-.237-2.676 1.252.336.297-.617 1.896 1.096 3.189 1.366-.265 2.092zm-7.453-2.555-1.415-.354.284-.71 1.131-.409v1.473zm-.565 3.62-.243 1.461-.04.24-.944.852-1.415-.319-1.698-.958-1.131-1.064-1.16-1.471.05-.152 2.335-.878 2.689.08.22-.548.205.203 1.51.53-.378 2.023zm35.987 5.16-2.5-.426-1.18 1.702-1.509.525-.33.114-.565.798.05.562-1.277-.136-1.037-1.064-1.32-2.66-1.981-.64-.095-.956 1.98-2.448.42-.982 1.138.184 3.82 1.277 4.669-.479.52-1.064-1.935-1.543-2.594-3.511-4.103-1.65-1.746.106-1.481-.096.208-.755-3.302-2.34-4.48-2.449-2.689-1.222-1.179-1.917-3.726.533-4.811-.638L35.71 45l-1.886 1.01-1.321 1.916-2.283.047-.312.007-2.5.318-1.46.692h-1.605l-.283 1.118 2.405.957 1.651.16-1.988 1.37-.535-.359H23.19l-1.981 1.037-3.043 1.437H16.61l-1.344 1.995.424 1.835L13 60.775l.043.085.594 1.192 4.033 2.474 1.486.638.778-1.197 1.556-.08 3.68.718 1.131-1.357.304-.907.853 1.28 1.791 1.703 1.227.532.566 1.49 1.603 1.809 2.642 1.702 1.509 2.553.754 3.725-.094 7.235.094 9.896.284 10.215.189 12.237-.189 9.684-.66 5.32-.189 6.384.094 3.724 3.585.425 5.093.745 2.925-.106 1.861-.72 1.44-.557-.376-7.554-.755-16.6-.189-13.407-.567-10.854-.377-11.917.283-5.215.094-2.234.378-1.596 1.51.214 1.98 1.382 2.17 1.064 2.264.638.188-1.063-2.452-.851-1.226-1.81v-1.276l1.414-1.49 2.548.213.943.638 1.887 1.384 2.075.638.43-.087 1.55 1.15 2.453-.691.755-.585 2.642.692 1.886-.107L75 68.995l-1.226-2.022-3.915-.106z"/>
            <path fill="#230700" d="m62.154 66.25-.154.688 1.59 1 1.538.062.872-.687L65.743 66l-3.589.25M67.438 65.843l1.124.157.438-1-2 .211.438.632M70 63h1.687l.313-.764L70.375 62 70 63M11.047 62.513l-.047.923.605.564L13 63.59 12.581 62l-1.534.513M14.116 64l-.116.612L15 65l-.115-.777-.77-.223M48.44 47.857 50 48v-.81L48 47l.44.857M37 45l1.847.8 2.102.2.051-1-1.794-1L37 45M21 49.759 22.714 51 23 49.62 21.04 49l-.04.759M59 52.388l.29.612.71-.39-.194-.61-.806.388M47.95 59.046l-.95.363.25.318 1.05.136-.05 1.045 3.1.092.65-1.319L50.8 59l-2.85.046M50 62l1 1-.041-1H50M294.104 58.437l-1.168 1.097-1.754.987-1.46.328-.975-.877-.04-.247-.252-1.508-.388-2.084 1.557-.547.212-.21.227.566 2.776-.083 2.41.905.051.156-1.196 1.517zm-6.232-5.467 1.168.422.293.73-1.46.366V52.97zm-1.363 7.111-1.364.768-2.337.11-1.655-.987-.974-2.851-.274-2.157 3.292-1.407 1.958-1.13.307.636 1.292-.346-.245 2.759.291 3.07-.291 1.535zm-7.499.988-1.46 1.973-1.949.44-3.212-.878-3.505-.438-3.116-.769-1.363-1.425-2.242-2.303-.035-.104.035-.006h3.8l1.897-1.371.927-1.803 1.508-.06 4.675.163 2.97 1.316.81-.346.456 3.088-.196 2.523zm28.654-8.006-1.388-2.056h-1.607l-3.14-1.481-2.045-1.069h-2.483l-.552.37-2.053-1.412 1.705-.165 2.482-.985-.292-1.153h-1.656l-1.509-.713-2.58-.328-.322-.007-2.356-.047-1.363-1.976L286.558 41l-3.213.713-4.967.658-3.847-.549-1.218 1.975-2.774 1.26-4.625 2.522-3.409 2.413.215.78-1.529.097-1.802-.109-4.236 1.7-2.677 3.619-1.997 1.59.537 1.097 4.82.493 3.943-1.316 1.175-.189.431 1.012 2.046 2.522-.098.987-2.045.658-1.364 2.742-1.071 1.096-1.317.141.052-.58-.584-.822-.34-.118-1.559-.54-1.217-1.755-2.58.438-4.043.11L246 65.73l1.56 3.4 1.946.11 2.725-.713.781.603 2.532.713 1.599-1.186.444.09 2.143-.66 1.948-1.425.974-.657 2.628-.22 1.461 1.535v1.317l-1.266 1.864-2.531.877.081.46.113.636 2.337-.657 2.24-1.098 2.044-1.424 1.56-.22.388 1.644.098 2.304.292 5.374-.39 12.282-.584 11.186-.194 13.817-.78 17.108-.39 7.786 1.487.575v-.002l1.922.742 3.019.11 5.257-.767 3.701-.44.098-3.837-.195-6.58-.682-5.483-.195-9.98.195-12.61.293-10.529.097-10.198-.097-7.458.779-3.838 1.558-2.632 2.726-1.754 1.654-1.865.586-1.535 1.265-.548 1.85-1.755.88-1.319.313.935 1.17 1.398 3.797-.74 1.606.082.803 1.235 1.534-.658 4.163-2.55.657-1.317-2.774-2.303.438-1.891z"/>
            <path fill="#230700" d="M254.255 63 254 64.312l.871.688 1.538-.063 1.591-1-.154-.688-3.591-.249M252.437 63l1.125-.158.438-.632-2-.21.437 1M248 58.236l.31.764H250l-.374-1-1.626.236M309.419 58 309 59.59l1.396.41.604-.564-.047-.923L309.42 58M307.115 60.224 307 61l1-.388-.116-.612-.769.224M271 44l1.56-.143L273 43l-2 .19V44M281 41l.052 1 2.101-.2L285 41l-2.206-1L281 41M299 44.621l.286 1.379L301 44.76l-.04-.76-1.96.621M261 48.611l1.42.389.58-.612-1.613-.388-.387.611M270.2 56l-1.2.681.648 1.319 3.101-.092-.05-1.045 1.051-.136.25-.318-.951-.363-2.85-.046M270 59l1-1h-.958L270 59M32 347.578l.334.422.666-1.473-.6-.527-.4 1.578"/>
            <path d="m5.612 341.053-1.097-1.495-.233-.726 1.618-.683 2.999-1.974.03-.019.836 1.056s.418 1.641.731 1.76c.313.117 3.865-.118 3.865-.118l4.074-1.642.405-.21.874 3.435.393 7.478-.236 3.079-.862.44-1.488-2.2-3.37-1.407-3.211-1.408-3.134-3.519-2.194-1.847zm2.586-13.019 1.723-.791 1.87.62.794 1.93.75 1.123-.54.08-5.224-.588-.86-.038 1.487-2.336zm5.17.351 1.82-1.225.139-.094 1.357-1.813 1.463 1.021 1.947.039-.406 4.104-1.358-.243-3.24.482-.625-.51-1.113-1.767.016.006zm7.734 7.444 1.407-.729 2.716-.703.123-1.149.19-1.784-4.318-.773.06-4.355 1.333.026 1.657-.112.694.993 3.37 2.287 2.192 1.143.647 3.565-4.643.13-1.413 1.427h.001l-.154.157-1.332.79-.157 1.671.47 1.321 2.116.352 2.193.615.626 2.024 1.724 1.495 4.486-.956.624 1.202-1.818-.158-1.411.176-.157 1.144 2.272.967 1.822-.162.842 3.153-.68 3.99-.025.143-2.977 3.872-2.319 1.225-.344.183-3.213-.616-4.936-4.927v-4.047l-.627-5.101-1.097-6.334.056-2.145zm8.014-9.907 1.254-1.407.042-.003-.042 2.026v2.2l-2.194-.967-2.388-1.624 3.328-.225zm4.387-1.583 4.304-.075-1.326 2.802-2.115 2.111-2.194.528-.47-2.816-.112-2.443 1.913-.107zm7.834-.176 1.098-1.672-.05-.1.833.277 2.899 2.463 1.029-.18-.246 2.292.393 3.606 1.488 3.518-.549 3.782-4.192.437.197-.348-.862-2.112-4.387-2.023-5.735.081-.533-1.575 1.097-1.409 2.35-1.67 1.332-2.287 1.332-2.991-.001-.008 2.507-.08zm6.738.625 2.543-.446.2 1.493-1.165 6.364-.01.057-1.019-.968-.862-4.045.313-2.455zm3.291 7.028.94-5.014-.579-2.8 2.774-1.16 6.502 1.761 1.365.456-.347.863-2.193 2.463-3.526 2.815-3.76 1.497-1.487 1.37.311-2.25zm-9.793 16.802h-1.097l-.313-1.143-.55-2.815-2.63-2.575.516-.329.548-1.67 1.567.44 1.048-.105-.186 1.6.235 1.319 1.567.529 1 3.288-1.705 1.461zM6.71 346.683l1.779 1.07 1.746 1.569 3.84 1.672 1.958 2.287 2.664 4.047 4.544 2.55 2.115 2.64 2.508 4.397.39 4.048.524 8.063-.523 5.63-1.097 9.882-.47 1.847 1.332.264 3.84.351h3.682l1.33-1.318-1.174-4.487-.862-12.052-.156-8.884.549-6.334 2.898-6.245 2.507-3.96 3.917-3.781L46 348.49l1.919.567 2.82 2.463 2.978.089 1.645-1.145 9.715-2.022 4.858-2.024.078-1.32-1.723-1.23-2.038-1.057-1.331-2.55-.176-.136-1.313-1.008s-5.563 1.583-5.798 1.671c-.235.089-5.014-1.055-5.014-1.055l-2.237-.808.4-2.895 1.21-1.576 4.701-2.022 4.622-3.607 1.824-3.51 3.66 1.222 3.448-1.231 2.429 1.143 7.443.176 1.723-1.055.157-1.144h-.783l-1.176-1.584-.313-2.99-1.097-2.023-4.622-1.409-5.798-2.022-3.605-1.76-5.483 1.935-2.664-.527-7.208-1.231-3.995.967-3.919 2.99-.69.37.064-1.161-.658-.252-10.154-3.882L23.945 310h-2.899l-1.88.968-2.986 1.696-3.673 2.087-1.019 1.055-4.779-.616-2.585.616-1.02.704-.783 1.32.784.879 1.723 1.76 2.194.615 2.664-1.32 2.272.353 2.35 1.496.174 1.219-.696-.023-7.234-.23L1 321.7v17.5l1.557.358.18-.076.055.163 2.193 2.288 1.253 2.2.27.501-1.836-.062L1 344.288v1.4l1.557.291 4.152.704z" fill="#230700"/>
            <path fill="#230700" d="m15 339.48.657 1.28 1.686.24.657-1.68-1.031-.32-1.969.48M26 330l.692 1 1.308-.3-.308-.7H26M12.692 340l-.692.18 1.154.82.846-.454-.077-.546h-1.23M3 319.454 2.246 318 1 318.27v1.655l1.329.075.671-.546M75 327l.595 1.223 1.617.777 1.533-.11.255-1.001-1.106-.889H75M69 342.365l.945 1.362 1.891.273L73 343l-.218-1-3.782.365M71 345.887l.941.11.059-.774-.765-.22-.235.884M41 324.176l1.546.824.454-1.058-1.454-.942-.546 1.176M294 348.579l.334.421.666-1.473-.6-.527-.4 1.579"/>
            <path d="m311.568 333.198-.01.058-1.025-.968-.868-4.046.315-2.454 2.56-.447.2 1.493-1.172 6.364zm-1.429 5.951-4.22.436.2-.347-.867-2.111-4.416-2.024-5.768.081-.537-1.576 1.104-1.409 2.363-1.67 1.341-2.287 1.34-2.99v-.01l2.523-.079 1.104-1.672-.052-.1.84.276 2.916 2.464 1.035-.181-.247 2.292.396 3.606 1.497 3.52-.552 3.781zm-6.7 10.47h-1.104l-.315-1.144-.553-2.815-2.646-2.575.518-.328.552-1.671 1.576.44 1.055-.105-.187 1.6.236 1.319 1.577.529 1.005 3.288-1.714 1.462zm-5.02 4.957-.026.144-2.995 3.87-2.332 1.226-.348.183-3.232-.616-4.967-4.927v-4.046l-.632-5.102-1.102-6.334.056-2.145 1.416-.729 2.732-.703.315-2.933-4.344-.773.06-4.356 1.341.027 1.667-.113.698.993 3.39 2.287 2.207 1.144.112.61.539 2.955-4.67.13-1.423 1.428h.001l-.156.155-1.34.792-.023.242-.135 1.428.474 1.321 2.128.352 2.207.616.63 2.023 1.735 1.495 4.513-.956.627 1.202-1.829-.158-1.419.175-.158 1.144 2.286.968 1.834-.161.848 3.15-.686 3.992zm-16.817-2.583-.867.441-1.497-2.2-3.39-1.406-3.233-1.409-3.153-3.519-2.207-1.847-1.104-1.496-.235-.725 1.628-.683 3.018-1.974.03-.02.841 1.056s.421 1.641.736 1.76c.315.118 3.888-.117 3.888-.117l4.1-1.643.408-.21.88 3.437.394 7.477-.237 3.078zm-15.294-6.42-4.572-.353-1.497-1.231-.474-2.376.089-2.108.227.114 4.1.938.181-.076.054.164 2.208 2.287 1.26 2.2.27.502-1.846-.062zm3.548-16.54 1.735-.79 1.881.62.798 1.93.756 1.123-.545.08-5.256-.588-.865-.038 1.496-2.337zm5.204.352 1.83-1.226.14-.093 1.365-1.814 1.473 1.022 1.958.039-.408 4.104-1.365-.243-3.262.48-.628-.51-1.122-1.764.019.005zm15.844-2.463 1.262-1.408.043-.002-.043 2.026v2.2l-2.208-.967-2.402-1.624 3.348-.225zm4.415-1.583 4.33-.074-1.335 2.8-2.128 2.112-2.208.528-.473-2.815-.112-2.444 1.926-.107zm22.94 6.86-3.785 1.497-1.495 1.37.314-2.25.945-5.014-.582-2.8 2.79-1.158 3.554.955v-9.44l-1.584-.313-7.252-1.23-4.02.967-3.942 2.99-.696.37.065-1.16-.663-.253-10.216-3.882-5.99-1.848h-2.917l-1.893.968-3.005 1.696h.002l-3.697 2.086-1.025 1.055-4.808-.615-2.602.615-1.025.705-.788 1.32.788.878 1.734 1.76 2.208.617 2.68-1.321 2.286.352 2.365 1.496.175 1.22-.7-.022-7.28-.23-6.7-1.056h-4.257l-7.174 1.583-2.916 1.76.551 1.67-2.05 1.409 1.09 2.51-.747 1.36-1.577 1.29-.42 1.173.42.939 2.627 1.642 3.47-.587 5.36.235 2.922 1.467-.137 4.222 1.262 2.99 4.256.791 4.179.704 1.79 1.07 1.757 1.57 3.863 1.671 1.97 2.288 2.68 4.046 4.574 2.551 2.127 2.64 2.523 4.397.394 4.047.527 8.064-.527 5.63-1.104 9.882-.472 1.847 1.34.264 3.862.351h3.705l1.34-1.32-1.182-4.484-.867-12.053-.158-8.885.552-6.332 2.917-6.247 2.523-3.959 3.941-3.782 1.459-1.447 1.931.567 2.838 2.463 2.995.088 1.656-1.144 2.687-.556v-9.24a10.94 10.94 0 0 0-.401.12c-.237.088-5.046-1.055-5.046-1.055l-2.25-.808.403-2.895 1.218-1.576 4.729-2.022 1.347-1.044v-1.572l-1.741 1.382z" fill="#230700"/>
            <path fill="#230700" d="m243 331.166.205 1 .954.834 1.841-.918-1.704-1.082-1.296.166M242 336.154l.918.846.832-.924.25-.922-.667-.154-1.333 1.154M277 340.48l.655 1.28 1.69.24.655-1.68-1.031-.32-1.969.48M288 332l.692 1 1.308-.3-.307-.7H288M274.693 341l-.693.18 1.155.82.845-.455-.077-.545h-1.23M262.147 319.545l-.147.909 1.024.454 1.39.092.586-.546-.66-1.454-2.193.545M303 326.175l1.546.825.454-1.059-1.455-.941-.545 1.175M32.208 155.333l21.147.667 6.645-.222-1.208-8.228L1 147v8.406l6.437-.073h24.771M61 170v-7.946L1 161v7.67l28.213-.174L61 170M45.121 185 60 183.772v-7.159H49.372L14.15 176 1 176.103v8.494l.398-.007 43.723.41M59.273 203l2.727-.504-.909-7.567-40.3-1.764S10.01 192.994 1 193v9.19l25.547-.703L59.273 203M15.817 156.487s-.972 1.269-.796 1.757c.177.487 1.857 1.756 1.857 1.756l1.68-.293.442-1.756L17.409 156l-1.592.487M20.644 156.762c-.372.762-.838 1.619-.559 1.81.28.19.84 1.238.84 1.238l1.956.19L24 158.762v-2.096L22.23 156s-1.212 0-1.586.762"/>
            <path fill="#E28305" d="M26.373 156.227 25 157.704l.196 1.705 1.275 1.25 2.548.341.981-1.705v-2.613L28.04 156l-1.667.227M32.696 156.7 32 158.4l.609 1.2 1.565.4 1.566-.8.26-2-1.913-1.2-1.39.7"/>
            <path fill="#230700" d="m40.291 156-1.562.666-.729 1.62.729 1.429 2.083.285 1.668-.762.52-2-.833-.667L40.29 156M44.938 156.465 44 158.209l.521 2.094 2.187.697 1.563-.58.729-2.792L46.813 156l-1.875.465"/>
            <path fill="#E28305" d="M50.585 158.1 50 159.9l.975 1 1.952.1 1.073-.8v-1.8l-1.463-1.4-1.952 1.1"/>
            <path d="m57 157.084-1.455.904-.545 1.707.727 1.205 1.545.1s1.182 0 1.273-.3c.09-.302.455-2.31.455-2.31l-1.182-1.004s-.91-.603-.818-.302M15.817 171.487s-.972 1.269-.796 1.757c.178.488 1.857 1.756 1.857 1.756l1.68-.293.442-1.756L17.409 171l-1.592.487" fill="#230700"/>
            <path d="M20.645 171.762c-.373.762-.84 1.619-.56 1.81.28.19.84 1.238.84 1.238l1.956.19L24 173.762v-2.096L22.23 171s-1.212 0-1.585.762" fill="#E28305"/>
            <path fill="#230700" d="M27.373 171.227 26 172.704l.196 1.705 1.275 1.25 2.549.341.98-1.704v-2.614L29.04 171l-1.667.227M32.696 171.7 32 173.4l.609 1.2 1.565.4 1.566-.8.26-2-1.913-1.2-1.39.7"/>
            <path fill="#E28305" d="m40.291 171-1.562.666-.729 1.62.729 1.429 2.083.285 1.668-.762.52-2-.833-.667L40.29 171"/>
            <path fill="#230700" d="M44.938 171.465 44 173.21l.521 2.092 2.187.698 1.563-.582.729-2.79L46.813 171l-1.875.465"/>
            <path fill="#E28305" d="M50.585 172.1 50 173.9l.975 1 1.952.1 1.073-.8v-1.8l-1.463-1.4-1.952 1.1"/>
            <path d="m57 171.084-1.455.904-.545 1.707.727 1.205 1.545.1s1.182 0 1.273-.3c.091-.302.455-2.31.455-2.31l-1.182-1.004s-.91-.603-.818-.302" fill="#230700"/>
            <path d="M15.817 187.488s-.972 1.268-.796 1.756c.177.488 1.857 1.756 1.857 1.756l1.68-.292.442-1.757L17.408 187l-1.59.488" fill="#E28305"/>
            <path d="M20.645 187.762c-.373.762-.84 1.618-.56 1.81.28.19.84 1.238.84 1.238l1.957.19L24 189.762v-2.095L22.23 187s-1.213 0-1.585.762M26.373 187.227 25 188.705l.196 1.704 1.274 1.25 2.55.341.98-1.705v-2.613L28.04 187l-1.667.227" fill="#230700"/>
            <path fill="#E28305" d="M32.695 187.7 32 189.4l.609 1.2 1.565.4 1.565-.8.261-2-1.913-1.2-1.392.7M40.292 187l-1.563.667-.729 1.619.729 1.428 2.083.286 1.667-.762.521-2-.833-.667-1.875-.571"/>
            <path fill="#230700" d="M44.938 187.465 44 189.209l.52 2.094 2.188.697 1.563-.582.729-2.79L46.812 187l-1.874.465M50.585 188.1 50 189.9l.976 1 1.951.1 1.073-.8v-1.8l-1.464-1.4-1.95 1.1M57 187.084l-1.455.904-.545 1.707.727 1.204 1.546.101s1.182 0 1.272-.301c.091-.301.455-2.31.455-2.31l-1.182-1.004s-.909-.602-.818-.3"/>
            <path fill="#E28305" d="m4.292 156-1.563.666-.729 1.62.73 1.429 2.083.285 1.666-.762.521-2-.833-.667L4.292 156"/>
            <path fill="#230700" d="M8.938 156.465 8 158.209l.521 2.094 2.187.697 1.563-.58.729-2.792L10.813 156l-1.875.465"/>
            <path fill="#E28305" d="M.45 172.136v.728l.1-.673-.1-.055"/>
            <path fill="#230700" d="m4.292 171-1.563.666-.729 1.62.73 1.429 2.083.285 1.666-.762.521-2-.834-.667L4.292 171"/>
            <path fill="#E28305" d="M8.938 171.465 8 173.21l.521 2.092 2.187.698 1.563-.582.729-2.79L10.813 171l-1.875.465"/>
            <path fill="#230700" d="m4.291 187-1.562.667L2 189.286l.73 1.428 2.082.286 1.667-.762.521-2-.834-.667L4.291 187"/>
            <path fill="#E28305" d="M8.938 187.465 8 189.209l.521 2.094 2.188.697 1.562-.582.729-2.79L10.812 187l-1.874.465"/>
            <path fill="#230700" d="M61 218v-7.946L1 209v7.67l28.213-.173L61 218M45.121 233 60 231.772v-7.158H49.372L14.15 224 1 224.103v8.494l.398-.006L45.12 233M15.817 204.487s-.972 1.269-.796 1.757c.177.488 1.857 1.756 1.857 1.756l1.68-.293.442-1.756L17.409 204l-1.592.487M20.644 204.762c-.372.762-.838 1.619-.559 1.81.28.19.84 1.238.84 1.238l1.956.19L24 206.762v-2.096L22.23 204s-1.212 0-1.586.762"/>
            <path fill="#E28305" d="M26.373 204.227 25 205.704l.196 1.705 1.275 1.25 2.548.341.981-1.704v-2.614L28.04 204l-1.667.227"/>
            <path fill="#230700" d="M32.696 204.7 32 206.4l.609 1.2 1.565.4 1.566-.8.26-2-1.913-1.2-1.39.7"/>
            <path fill="#E28305" d="m40.291 204-1.562.666-.729 1.62.729 1.429 2.083.285 1.668-.762.52-2-.833-.667L40.29 204"/>
            <path fill="#230700" d="M44.938 204.465 44 206.21l.521 2.093 2.187.697 1.563-.58.729-2.792L46.813 204l-1.875.465"/>
            <path fill="#E28305" d="M50.585 205.1 50 206.9l.975 1 1.952.1 1.073-.8v-1.8l-1.463-1.4-1.952 1.1"/>
            <path d="m57 204.084-1.455.904-.545 1.707.727 1.205 1.545.1s1.182 0 1.273-.3c.09-.302.455-2.31.455-2.31l-1.182-1.004s-.91-.603-.818-.302M15.817 219.487s-.972 1.269-.796 1.757c.178.488 1.857 1.756 1.857 1.756l1.68-.293.442-1.756L17.409 219l-1.592.487M20.645 219.762c-.373.761-.84 1.618-.56 1.809.28.19.84 1.238.84 1.238l1.956.191L24 221.761v-2.095L22.23 219s-1.212 0-1.585.762" fill="#230700"/>
            <path fill="#E28305" d="M27.373 219.228 26 220.704l.196 1.705 1.275 1.25 2.549.341.98-1.704v-2.614L29.04 219l-1.667.228"/>
            <path fill="#230700" d="M32.696 219.7 32 221.4l.609 1.2 1.565.4 1.566-.8.26-2-1.913-1.2-1.39.7M40.291 219l-1.562.666-.729 1.62.729 1.428 2.083.286 1.668-.762.52-2-.833-.667L40.29 219M44.938 219.464 44 221.21l.521 2.093 2.187.698 1.563-.582.729-2.79L46.813 219l-1.875.464"/>
            <path fill="#E28305" d="M50.585 220.1 50 221.9l.975 1 1.952.1 1.073-.8v-1.8l-1.463-1.4-1.952 1.1"/>
            <path d="m57 219.084-1.455.904-.545 1.706.727 1.205 1.545.101s1.182 0 1.273-.301c.091-.302.455-2.31.455-2.31l-1.182-1.003s-.91-.603-.818-.302M15.817 235.488s-.972 1.269-.796 1.757c.177.487 1.857 1.755 1.857 1.755l1.68-.293.442-1.755L17.408 235l-1.59.488M20.645 235.762c-.373.762-.84 1.62-.56 1.81.28.19.84 1.238.84 1.238l1.957.19L24 237.762v-2.095L22.23 235s-1.213 0-1.585.762M26.373 235.227 25 236.704l.196 1.706 1.274 1.25 2.55.34.98-1.704v-2.614L28.04 235l-1.667.227" fill="#230700"/>
            <path fill="#E28305" d="M32.695 235.7 32 237.4l.609 1.2 1.565.4 1.565-.8.261-2-1.913-1.2-1.392.7"/>
            <path fill="#230700" d="m40.292 235-1.563.667-.729 1.619.729 1.428 2.083.286 1.667-.762.521-2-.833-.666-1.875-.572M44.938 235.466 44 237.21l.52 2.093 2.188.697 1.563-.582.729-2.79L46.812 235l-1.874.466M50.585 236.1 50 237.9l.976 1 1.951.1 1.073-.8v-1.8l-1.464-1.4-1.95 1.1M57 235.084l-1.455.904-.545 1.707.727 1.204 1.546.101s1.182 0 1.272-.301c.091-.302.455-2.309.455-2.309l-1.182-1.004s-.909-.603-.818-.302M4.292 204l-1.563.666-.729 1.62.73 1.429 2.083.285 1.666-.762.521-2-.833-.667L4.292 204"/>
            <path fill="#E28305" d="M8.938 204.465 8 206.21l.521 2.093 2.187.697 1.563-.58.729-2.792L10.813 204l-1.875.465"/>
            <path fill="#230700" d="M.45 220.136v.728l.1-.674-.1-.054"/>
            <path fill="#E28305" d="m4.292 219-1.563.666-.729 1.62.73 1.428 2.083.286 1.666-.762.521-2-.834-.667L4.292 219"/>
            <path fill="#230700" d="M8.938 219.464 8 221.21l.521 2.093 2.187.698 1.563-.582.729-2.79L10.813 219l-1.875.464M4.291 235l-1.562.667L2 237.286l.73 1.428 2.082.286 1.667-.762.521-2-.834-.666L4.291 235M8.938 235.466 8 237.21l.521 2.093 2.188.697 1.562-.582.729-2.79L10.812 235l-1.874.466M259.21 147.576l-1.21 8.202 6.656.222 21.181-.665h24.811l9.352.104V147l-60.79.576M258 162.1v7.9l31.315-1.495 30.685.19V161l-62 1.1M303.913 176l-35.271.613H258v7.16L272.9 185l43.785-.41 3.315.054v-8.518L303.913 176M297.27 193.165l-40.36 1.764-.91 7.567 2.731.504 32.773-1.513 28.496.783v-9.26c-9.415-.056-22.73.155-22.73.155M300.591 156 299 157.95l.442 1.757 1.68.293s1.68-1.269 1.857-1.756c.176-.488-.797-1.757-.797-1.757l-1.59-.487M295.77 156l-1.77.666v2.096l1.118 1.238 1.958-.19s.56-1.048.839-1.239c.28-.19-.186-1.047-.559-1.81-.373-.761-1.585-.761-1.585-.761M288.961 156l-1.961.682v2.613l.98 1.705 2.55-.341 1.274-1.25.196-1.705-1.372-1.477-1.667-.227M283.913 156 282 157.2l.26 2 1.566.8 1.566-.4.608-1.2-.696-1.7-1.391-.7"/>
            <path fill="#E28305" d="m277.708 156-1.874.571-.834.667.521 2 1.667.762 2.083-.285.729-1.43-.729-1.619-1.563-.666"/>
            <path fill="#230700" d="M271.188 156 269 157.628l.73 2.791 1.562.581 2.187-.697.521-2.094-.938-1.744-1.874-.465M265.463 157 264 158.4v1.8l1.073.8 1.952-.1.975-1-.585-1.8-1.952-1.1M261 157.084c.091-.3-.818.302-.818.302L259 158.389s.364 2.009.455 2.31c.09.301 1.273.301 1.273.301l1.545-.1.727-1.205-.545-1.707-1.455-.904M300.592 171 299 172.95l.442 1.757 1.68.293s1.68-1.268 1.856-1.756c.178-.488-.795-1.757-.795-1.757l-1.591-.487"/>
            <path d="m295.771 171-1.771.666v2.096l1.119 1.238 1.957-.19s.56-1.048.839-1.239c.28-.19-.187-1.047-.56-1.81-.372-.761-1.584-.761-1.584-.761" fill="#E28305"/>
            <path fill="#230700" d="m288.96 171-1.96.682v2.614l.98 1.704 2.55-.341 1.274-1.25.196-1.705-1.372-1.477-1.667-.227M283.912 171 282 172.2l.26 2 1.566.8 1.565-.4.609-1.2-.696-1.7-1.392-.7M277.708 171l-1.875.571-.833.667.52 2 1.667.762 2.084-.285.729-1.429-.73-1.62-1.562-.666M271.187 171 269 172.628l.729 2.79 1.562.582 2.189-.698.52-2.092-.937-1.745-1.876-.465"/>
            <path fill="#E28305" d="M265.463 171 264 172.4v1.8l1.073.8 1.95-.1.977-1-.586-1.8-1.951-1.1"/>
            <path d="M260 171.084c.09-.3-.818.302-.818.302L258 172.389s.364 2.009.455 2.31c.091.301 1.272.301 1.272.301l1.545-.1.728-1.205-.545-1.707-1.455-.904M300.591 187 299 188.951l.442 1.757 1.68.292s1.68-1.268 1.857-1.756c.176-.488-.796-1.756-.796-1.756L300.59 187M295.77 187l-1.77.667v2.095l1.119 1.238 1.957-.19s.559-1.048.839-1.238c.28-.192-.187-1.048-.56-1.81-.372-.762-1.584-.762-1.584-.762" fill="#230700"/>
            <path fill="#E28305" d="m288.961 187-1.961.682v2.613l.98 1.705 2.55-.34 1.275-1.25.195-1.705-1.372-1.478-1.667-.227"/>
            <path fill="#230700" d="M283.913 187 282 188.2l.26 2 1.566.8 1.565-.4.609-1.2-.695-1.7-1.392-.7M277.708 187l-1.875.571-.833.667.521 2 1.666.762 2.084-.286.729-1.428-.73-1.62-1.562-.666M271.188 187 269 188.628l.73 2.79 1.562.582 2.187-.697.521-2.094-.938-1.744-1.874-.465M265.463 187 264 188.4v1.8l1.073.8 1.952-.1.975-1-.585-1.8-1.952-1.1M261 187.084c.09-.301-.818.301-.818.301L259 188.39s.364 2.008.455 2.309c.09.301 1.272.301 1.272.301l1.545-.1.728-1.205-.546-1.707-1.455-.904M319.238 156 317 157.2l.305 2 1.831.8.864-.189v-3.484l-.762-.327M313.709 156l-1.875.571-.834.667.521 2 1.667.762 2.083-.285.729-1.43-.729-1.619-1.562-.666"/>
            <path fill="#E28305" d="M307.188 156 305 157.628l.73 2.791 1.563.581 2.186-.697.521-2.094-.937-1.744-1.875-.465"/>
            <path fill="#230700" d="M319.095 171 317 172.2l.285 2 1.716.8.999-.233v-3.352l-.905-.415M312.707 171l-1.874.571-.833.667.521 2 1.666.762 2.083-.285.73-1.429-.73-1.62-1.563-.666"/>
            <path fill="#E28305" d="M306.187 171 304 172.628l.729 2.79 1.562.582 2.188-.698.521-2.092-.938-1.745-1.875-.465M319.164 187 317 188.2l.295 2 1.77.8.935-.211v-3.418l-.836-.371"/>
            <path fill="#230700" d="m313.708 187-1.874.571-.834.667.52 2 1.667.762 2.084-.286.729-1.428-.73-1.62-1.562-.666"/>
            <path fill="#E28305" d="M307.187 187 305 188.628l.73 2.79 1.562.582 2.188-.697.52-2.094-.938-1.744-1.875-.465"/>
            <path fill="#230700" d="M258 210.1v7.9l31.315-1.494 30.685.188V209l-62 1.1M303.913 224l-35.271.614H258v7.158L272.9 233l43.785-.409 3.315.053v-8.518L303.913 224M300.591 204 299 205.951l.442 1.756 1.68.293s1.68-1.268 1.857-1.756c.176-.488-.797-1.757-.797-1.757l-1.59-.487M295.77 204l-1.77.666v2.096l1.118 1.238 1.958-.19s.56-1.048.839-1.239c.28-.19-.186-1.047-.559-1.81-.373-.761-1.585-.761-1.585-.761M288.961 204l-1.961.682v2.614l.98 1.704 2.55-.341 1.274-1.25.196-1.705-1.372-1.477-1.667-.227M283.913 204 282 205.2l.26 2 1.566.8 1.566-.4.608-1.2-.696-1.7-1.391-.7"/>
            <path fill="#E28305" d="m277.708 204-1.874.571-.834.667.521 2 1.667.762 2.083-.285.729-1.429-.729-1.62-1.563-.666M271.188 204 269 205.628l.73 2.791 1.562.581 2.187-.697.521-2.093-.938-1.745-1.874-.465M265.463 204 264 205.4v1.8l1.073.8 1.952-.1.975-1-.585-1.8-1.952-1.1"/>
            <path d="M261 204.084c.091-.3-.818.302-.818.302L259 205.389s.364 2.009.455 2.31c.09.301 1.273.301 1.273.301l1.545-.1.727-1.205-.545-1.707-1.455-.904M300.592 219 299 220.951l.442 1.756 1.68.293s1.68-1.268 1.856-1.756c.178-.488-.795-1.757-.795-1.757l-1.591-.487" fill="#230700"/>
            <path d="m295.771 219-1.771.666v2.095l1.119 1.239 1.957-.191s.56-1.048.839-1.238c.28-.19-.187-1.048-.56-1.81-.372-.761-1.584-.761-1.584-.761" fill="#E28305"/>
            <path fill="#230700" d="m288.96 219-1.96.682v2.614l.98 1.704 2.55-.34 1.274-1.251.196-1.705-1.372-1.476-1.667-.228M283.912 219 282 220.2l.26 2 1.566.8 1.565-.4.609-1.2-.696-1.7-1.392-.7M277.708 219l-1.875.571-.833.667.52 2 1.667.762 2.084-.286.729-1.428-.73-1.62-1.562-.666"/>
            <path fill="#E28305" d="M271.187 219 269 220.627l.729 2.791 1.562.582 2.189-.698.52-2.093-.937-1.745-1.876-.464"/>
            <path fill="#230700" d="M265.463 219 264 220.4v1.8l1.073.8 1.95-.1.977-1-.586-1.8-1.951-1.1M260 219.084c.09-.3-.818.302-.818.302L258 220.389s.364 2.008.455 2.31c.091.301 1.272.301 1.272.301l1.545-.1.728-1.206-.545-1.706-1.455-.904M300.591 235 299 236.952l.442 1.755 1.68.293s1.68-1.268 1.857-1.755c.176-.488-.796-1.757-.796-1.757L300.59 235"/>
            <path d="m295.77 235-1.77.667v2.095l1.119 1.238 1.957-.19s.559-1.048.839-1.238c.28-.19-.187-1.048-.56-1.81-.372-.762-1.584-.762-1.584-.762" fill="#E28305"/>
            <path fill="#230700" d="m288.961 235-1.961.682v2.614l.98 1.704 2.55-.34 1.275-1.25.195-1.706-1.372-1.477-1.667-.227M283.913 235 282 236.2l.26 2 1.566.8 1.565-.4.609-1.2-.695-1.7-1.392-.7M277.708 235l-1.875.572-.833.667.521 1.999 1.666.762 2.084-.286.729-1.428-.73-1.619-1.562-.667"/>
            <path fill="#E28305" d="M271.188 235 269 236.628l.73 2.79 1.562.582 2.187-.697.521-2.093-.938-1.744-1.874-.466"/>
            <path fill="#230700" d="M265.463 235 264 236.4v1.8l1.073.8 1.952-.1.975-1-.585-1.8-1.952-1.1M261 235.084c.09-.301-.818.302-.818.302L259 236.39s.364 2.007.455 2.309c.09.301 1.272.301 1.272.301l1.545-.1.728-1.205-.546-1.707-1.455-.904M319.238 204 317 205.2l.305 2 1.831.8.864-.189v-3.484l-.762-.327M313.709 204l-1.875.571-.834.667.521 2 1.667.762 2.083-.285.729-1.429-.729-1.62-1.562-.666M307.188 204 305 205.628l.73 2.791 1.563.581 2.186-.697.521-2.093-.937-1.745-1.875-.465M319.095 219 317 220.2l.285 2 1.716.8.999-.234v-3.351l-.905-.415M312.707 219l-1.874.571-.833.667.521 2 1.666.762 2.083-.286.73-1.428-.73-1.62-1.563-.666M306.187 219 304 220.627l.729 2.791 1.562.582 2.188-.698.521-2.093-.938-1.745-1.875-.464M319.164 235 317 236.2l.295 2 1.77.8.935-.211v-3.417l-.836-.372"/>
            <path fill="#E28305" d="m313.708 235-1.874.572-.834.667.52 1.999 1.667.762 2.084-.286.729-1.428-.73-1.619-1.562-.667"/>
            <path fill="#230700" d="M307.187 235 305 236.628l.73 2.79 1.562.582 2.188-.697.52-2.093-.938-1.744-1.875-.466"/>
            <path d="M309.14 261.006c-.664.062-14.689-.16-15.575-.027-.885.13-1.577 1.226-1.596 1.941-.02.72-.348 7.184.154 7.678.5.496 8.992 1.655 11.345 1.49 2.358-.162 2.284-2.8 2.185-4.56-.098-1.766-.45-2.335-.45-2.335s-6.527-.371-7.119-.315c-.589.062-1.004 1.806-.947 2.368.06.56 5.557 1.062 5.85 1.074.292.005.263-1.512.263-1.512l-3.89-.208.018-.636 4.62.23s.19 3.839-.047 4.389c-.236.557-8.704-1.4-9.491-2.066-.794-.664.044-4.313.347-4.622.302-.31 10.436-.139 11.314-.029.879.106 1.863 4.378 1.761 5.33-.1.955-.64 4.613-.64 4.613s-8.473.842-11.464.186c-2.995-.66-5.688-1.625-5.968-2.114-.28-.489.391-11.411.391-11.411s9.523-1.689 11.073-1.956c1.55-.27 6.256-.358 6.256-.358.514.018.342-1.746.347-1.984.008-.239-19.01-.621-20.847 1.954-1.832 2.577-.67 8.447-.628 12.206.042 3.755.998 6.344 1.726 6.608.727.263 12.76.738 14.149 1.024 1.39.283 7.895-1.18 8.343-1.483.448-.308.499-12.692.158-13.66-.34-.974-.976-1.872-1.638-1.815M309.373 255.012c-.847.05.013 1.91.013 1.91s1.93.188 2.104-.02c.176-.207.637-1.254.477-1.543-.16-.287-1.753-.399-2.594-.347M312.229 256.239c-.613.26.198 1.58.198 1.58l1.978.181s.664-1.556.59-1.828c-.077-.28-2.15-.19-2.766.067M281.871 282.06c-.727-.264-12.76-.738-14.148-1.024-1.39-.283-7.895 1.18-8.343 1.484-.448.307-.499 12.69-.158 13.66.34.973.976 1.87 1.638 1.814.664-.062 14.69.16 15.574.027.885-.13 1.577-1.225 1.597-1.94.02-.72.347-7.185-.154-7.68-.5-.494-8.991-1.653-11.345-1.49-2.356.163-2.284 2.8-2.186 4.561.1 1.766.452 2.334.452 2.334s6.526.372 7.118.317c.59-.062 1.003-1.807.946-2.369-.06-.56-5.555-1.062-5.849-1.074-.292-.006-.263 1.512-.263 1.512l3.89.208-.018.636-4.62-.23s-.19-3.839.046-4.389c.236-.557 8.704 1.4 9.492 2.066.794.664-.044 4.313-.348 4.623-.301.309-10.435.138-11.314.028-.877-.106-1.862-4.378-1.76-5.331.101-.954.641-4.612.641-4.612s8.471-.842 11.463-.186c2.994.66 5.688 1.625 5.968 2.114.279.489-.391 11.411-.391 11.411s-9.524 1.689-11.074 1.955c-1.548.27-6.255.36-6.255.36-.513-.019-.341 1.745-.348 1.983-.008.239 19.01.621 20.847-1.953 1.833-2.578.673-8.448.629-12.207-.042-3.755-1-6.344-1.727-6.608M258.508 301.097c-.175.208-.634 1.255-.475 1.545.158.287 1.752.397 2.594.346.847-.05-.014-1.91-.014-1.91s-1.93-.188-2.105.02" fill="#E28305"/>
            <path d="M255.596 301s-.665 1.556-.59 1.828c.077.28 2.151.19 2.765-.067.613-.26-.198-1.58-.198-1.58l-1.977-.181" fill="#E28305"/>
            <path d="M302.277 281.036c-1.388.286-13.422.76-14.149 1.024-.728.264-1.684 2.853-1.726 6.608-.043 3.76-1.204 9.629.628 12.207 1.837 2.574 20.855 2.192 20.847 1.953-.005-.238.167-2.002-.347-1.983 0 0-4.705-.09-6.256-.36-1.55-.266-11.073-1.955-11.073-1.955s-.67-10.922-.39-11.411c.279-.489 2.972-1.454 5.967-2.114 2.991-.656 11.464.186 11.464.186s.54 3.658.64 4.612c.102.953-.882 5.225-1.76 5.33-.88.111-11.013.282-11.315-.027-.303-.31-1.14-3.959-.347-4.623.787-.665 9.255-2.623 9.491-2.066.236.55.048 4.39.048 4.39l-4.62.229-.019-.636 3.89-.208s.03-1.518-.264-1.512c-.292.012-5.79.514-5.85 1.074-.056.562.36 2.307.948 2.369.592.055 7.118-.317 7.118-.317s.353-.568.451-2.334c.099-1.76.173-4.398-2.185-4.56-2.353-.164-10.844.995-11.345 1.49-.502.494-.175 6.959-.154 7.678.02.716.711 1.811 1.596 1.941.886.132 14.91-.09 15.575-.027.662.056 1.298-.841 1.638-1.815.34-.969.29-13.352-.158-13.66-.448-.303-6.953-1.766-8.343-1.483M309.386 301.078s-.86 1.86-.013 1.91c.841.05 2.434-.059 2.594-.346.16-.29-.301-1.337-.477-1.545-.174-.207-2.104-.019-2.104-.019" fill="#230700"/>
            <path d="M312.427 301.18s-.81 1.321-.198 1.58c.616.258 2.689.348 2.765.068.075-.272-.589-1.828-.589-1.828l-1.978.18" fill="#230700"/>
            <path d="M11.247 253.187c.007.26-.172 2.184.362 2.165 0 0 4.894.096 6.506.39 1.611.291 11.516 2.134 11.516 2.134s.697 11.916.407 12.448c-.292.534-3.093 1.588-6.207 2.307-3.11.715-11.921-.203-11.921-.203s-.563-3.991-.668-5.032c-.105-1.04.92-5.7 1.831-5.814.914-.121 11.454-.308 11.767.03.316.338 1.187 4.318.362 5.042-.82.727-9.625 2.862-9.872 2.255-.245-.6-.048-4.789-.048-4.789l4.805-.25.02.693-4.047.227s-.03 1.656.274 1.65c.305-.013 6.021-.561 6.083-1.173.06-.612-.372-2.514-.985-2.582-.615-.06-7.402.344-7.402.344s-.366.621-.47 2.547c-.102 1.92-.178 4.798 2.273 4.975 2.448.179 11.279-1.084 11.8-1.626.521-.539.181-7.591.16-8.376-.021-.78-.74-1.976-1.66-2.118-.921-.144-15.508.098-16.198.03-.688-.062-1.35.918-1.705 1.98-.354 1.056-.3 14.565.165 14.9.466.332 7.231 1.928 8.677 1.62 1.444-.313 13.959-.83 14.714-1.118.757-.287 1.753-3.111 1.796-7.208.045-4.1 1.252-10.504-.654-13.316-1.91-2.81-21.69-2.392-21.681-2.132M9.627 253.012c-.842-.051-2.434.06-2.594.347-.16.29.301 1.336.476 1.544.174.206 2.104.02 2.104.02s.861-1.86.014-1.91M3.006 253.259c-.074.407.59 2.741.59 2.741l1.977-.272s.81-1.979.198-2.37c-.615-.385-2.688-.52-2.765-.1" fill="#E28305"/>
            <path d="M61.065 258.461c-.69.068-15.277-.174-16.198-.03-.92.142-1.64 1.338-1.66 2.118-.02.785-.361 7.837.16 8.376.522.542 9.352 1.805 11.8 1.626 2.452-.177 2.374-3.055 2.273-4.975-.104-1.926-.47-2.547-.47-2.547s-6.787-.405-7.402-.344c-.613.068-1.045 1.97-.986 2.582.063.612 5.78 1.16 6.084 1.173.304.006.275-1.65.275-1.65l-4.046-.227.018-.693 4.805.25s.197 4.189-.049 4.789c-.245.607-9.051-1.528-9.87-2.255-.826-.724.045-4.704.36-5.042.314-.338 10.853-.151 11.767-.03.913.114 1.938 4.775 1.831 5.814-.104 1.04-.667 5.032-.667 5.032s-8.81.918-11.921.203c-3.114-.72-5.916-1.773-6.207-2.307-.29-.532.407-12.448.407-12.448s9.905-1.843 11.516-2.133c1.612-.295 6.506-.391 6.506-.391.534.019.356-1.905.362-2.165.008-.26-19.771-.677-21.68 2.132-1.907 2.812-.7 9.215-.655 13.316.043 4.097 1.038 6.92 1.795 7.208.757.289 13.271.805 14.715 1.118 1.446.308 8.211-1.288 8.677-1.62.465-.335.519-13.844.165-14.9-.355-1.062-1.016-2.042-1.705-1.98M61.373 253.012c-.847.05.013 1.91.013 1.91s1.93.187 2.104-.019c.176-.208.637-1.255.477-1.544-.16-.287-1.753-.398-2.594-.347M65.229 253.358c-.613.391.198 2.37.198 2.37l1.978.272s.664-2.334.59-2.741c-.077-.42-2.152-.286-2.766.099M31.786 281.156c-.755-.288-13.27-.805-14.714-1.117-1.446-.309-8.211 1.288-8.677 1.619-.466.335-.519 13.844-.165 14.9.355 1.063 1.017 2.043 1.705 1.981.69-.068 15.277.175 16.197.03.92-.142 1.64-1.337 1.66-2.118.022-.785.362-7.838-.16-8.376-.52-.54-9.35-1.805-11.799-1.627-2.451.178-2.375 3.055-2.273 4.977.104 1.925.47 2.546.47 2.546s6.787.405 7.402.345c.613-.068 1.044-1.97.985-2.583-.062-.612-5.778-1.16-6.083-1.172-.304-.007-.274 1.649-.274 1.649l4.046.227-.019.693-4.805-.249s-.197-4.19.048-4.79c.247-.608 9.052 1.528 9.872 2.255.825.725-.046 4.704-.362 5.042-.313.338-10.853.15-11.767.03-.912-.114-1.936-4.775-1.83-5.815.104-1.04.667-5.031.667-5.031s8.81-.918 11.921-.203c3.114.72 5.915 1.773 6.207 2.307.29.533-.407 12.448-.407 12.448s-9.905 1.842-11.516 2.133c-1.612.295-6.506.392-6.506.392-.534-.02-.355 1.904-.362 2.163-.008.261 19.77.678 21.681-2.13 1.906-2.812.7-9.216.654-13.317-.043-4.097-1.039-6.92-1.796-7.209M7.51 302.097c-.176.208-.636 1.256-.477 1.544.16.288 1.752.398 2.594.347.847-.05-.014-1.91-.014-1.91s-1.93-.188-2.104.02M3.596 301s-.664 2.334-.59 2.742c.077.42 2.15.285 2.765-.101.613-.39-.198-2.371-.198-2.371L3.596 301" fill="#230700"/>
            <path d="M53.928 280.04c-1.444.31-13.958.828-14.715 1.116-.757.288-1.752 3.112-1.795 7.209-.045 4.1-1.252 10.505.654 13.317 1.91 2.808 21.689 2.391 21.68 2.13-.005-.259.173-2.182-.36-2.163 0 0-4.895-.097-6.507-.392-1.611-.291-11.516-2.133-11.516-2.133s-.697-11.915-.407-12.448c.291-.534 3.093-1.588 6.207-2.307 3.11-.715 11.921.203 11.921.203s.563 3.99.667 5.031c.107 1.04-.918 5.7-1.83 5.816-.915.12-11.454.307-11.768-.03-.315-.339-1.186-4.318-.36-5.043.819-.727 9.625-2.863 9.87-2.256.246.601.05 4.791.05 4.791l-4.806.249-.018-.693 4.046-.227s.03-1.656-.275-1.65c-.304.013-6.021.561-6.084 1.173-.059.612.373 2.515.986 2.583.615.06 7.402-.345 7.402-.345s.366-.62.47-2.546c.101-1.922.179-4.799-2.273-4.977-2.448-.178-11.278 1.086-11.8 1.627-.521.538-.18 7.59-.16 8.376.02.781.74 1.976 1.66 2.119.921.144 15.508-.099 16.198-.031.689.062 1.35-.918 1.705-1.98.354-1.057.3-14.566-.165-14.901-.466-.331-7.231-1.928-8.677-1.619M61.386 302.078s-.86 1.86-.013 1.91c.841.05 2.434-.059 2.594-.347.16-.288-.301-1.336-.477-1.544-.174-.207-2.104-.019-2.104-.019M65.427 301.27s-.81 1.98-.198 2.37c.614.387 2.689.522 2.765.102.075-.408-.59-2.742-.59-2.742l-1.977.27" fill="#E28305"/>
            <path fill="#230700" d="m101.658 388.05-.112-1.617-.168-1.927-.56-.87-.37.194-.749-3.986.168-5.847-.336-4.229-.052-.19-.19-.679-.042-.157-.437-1.569h.001l-.454-1.632-2.735-2.626-.958-.918-.5-.242h-.001l-2.318-1.12-.147-.07-3.972.685-1.19.04-1.02.032-1.283.04-.598.02-3.575.116-2.41-.412-.37-.066-.885-.152-.721-.125-.816-.14-.226-.037-.217-.134.554-.923-.235-.153v.002l-.588-.377h.001l-.241-.156-.238-.243-.878-.894-.227-.23-1.292-1.245-.387-.374-.596-.446-.305-.23-.584-.44-1.742-1.309-.746-.558-.356-.297-.75-.621-.61-.504-1.361-1.128-.45-.101-.044-.01-1.69-.375-.433-.097v.001l-.46-.102-.23-.037-.64-.101-1.153-.183v-.002l-.696-.11L56.84 349l-.497.206-.364.15v.003l-.975.406-.16.065-1.137.476-2.301 1.704-.373.277-.348.256.56.375.872.791-.256.513-.671 1.557-.392.869-.616 1.058-2.07 3.482-.112 1.244.08.088 1.095 1.216.616.374.39.684.504-.187.896-.497.28-.498.671-.744.201-.077.047-.015.927-.344.228-.097.07-.03.376-.16.716-.305.512-.218.073-.088h.001l.585-.707.14-.169.214-.258.274-.332.07.165.047.11.447 1.05.075.174.053.123.316.742.767 1.492.49.956.98 1.904 1.974 2.83.152.217 2.518 1.431.912 2.464h-.001l.376 1.017.567.924.272.445.203.15.338 2.296.504 3.139-.224 1.556.522 1.689.448.559.448 3.483.168 2.673-.113 1.12-1.007 1.119-.448.498-.168.745 1.065.435.817-.098-.706.846-.056 1.057 1.007.124 1.791-.621.056-1.183.031-.055.528-.94.56-.435-.392-2.176-.168-6.343.28-.622V380.9l.146-1.203.04-.333.205-1.698.08-.15.07-.133.073-.143.169-.32.951-.186.74.395.034.02 1.133.606.386.206.841.45.801.116.842.12 2.273.325.452-.033 1.114-.083 1.314-.097.567-.043.064-.004 1.01-.076.376-.027.979-.073.15-.073 1.136 1.752 1.79 2.178 1.175.932 1.008 1.306.28 2.424-.951 4.29-.392 1.742-1.456.685-.67 1.43-.057.497 1.4.126 1.399-.126.447-1.305v-.373l.895-.5.224-1.304.167-2.861.48-2.009.191.517.055 4.056h.002l.001.109-1.008 2.924-.39.621-.785.686-.391 1.305 1.286.435 1.568-.497.222-.809.28-.869.728-.374.28-2.364 1.118-5.845.17-.996-.45-.809-.388-1.151-.023-.069-.427-1.265.01-.304.006-.181.003-.062.092-2.748 1.399-2.364.852-2.366.001-.001.378-1.053v3.482l.504 3.42.623 3.295-.12.062-.28 1.369.672 2.363 1.007 1.555 1.175.81.559-.25-.615-.56-.727-1.369M272.818 356.706l-.615-1.058-.392-.87-.67-1.555-.258-.514.873-.792.56-.374-.35-.256-.371-.277-2.301-1.704-1.139-.476-.158-.065-.976-.406v-.003l-.364-.15-.497-.206-1.198.189-.696.11v.002l-1.152.182-.641.1v.002l-.229.036-.462.103v-.001l-.431.097-1.69.375-.045.01-.45.1-1.971 1.633-1.106.917-.745.558-1.742 1.31-.584.44-.307.23-.595.446-.387.374-1.291 1.243-.228.232-.879.895v-.001l-.237.243-.241.156-.586.377-.001-.002-.234.153.553.924-.218.133-.225.038-.816.14-.721.124-.886.152-.37.065-2.41.414-3.573-.117-.6-.02-1.282-.04-1.018-.034-1.192-.038-3.972-.684-.147.07-2.318 1.12-.001-.001-.5.242-3.693 3.544-.455 1.632-.435 1.57-.043.156-.188.678-.053.193-.337 4.227.168 5.847-.748 3.987-.372-.195-.558.87-.169 1.927-.111 1.617-.727 1.37-.615.558.559.25 1.175-.808 1.007-1.555.671-2.364-.28-1.367-.12-.064.624-3.295.504-3.42v-3.482l.376 1.053.003.001.853 2.366 1.398 2.364.093 2.748.002.061.006.183.01.304-.427 1.265-.023.067-.39 1.153-.448.809.169.995 1.118 5.846.28 2.364.729.373.28.87.222.808 1.568.497 1.287-.435-.392-1.305-.783-.685-.392-.622-1.009-2.924.003-.109h.001l.055-4.055.19-.517.48 2.008.169 2.86.222 1.306.895.5v.373l.448 1.305 1.4.125 1.398-.125-.055-.496-.673-1.432-1.454-.684-.392-1.741-.95-4.291.278-2.424 1.009-1.307 1.175-.931 1.79-2.179 1.136-1.752.15.072.979.074.377.027 1.01.076.063.005.567.042 1.313.098 1.116.083.45.032 3.116-.444.801-.116.842-.45.386-.206 1.133-.608.033-.018.74-.395.951.185.169.32.073.143.07.132.08.152.205 1.696.04.334.146 1.204v4.228l.28.621-.168 6.344-.391 2.175.56.435.527.94.031.056.056 1.182 1.79.621 1.008-.124-.055-1.057-.707-.845.818.098 1.063-.435-.167-.745-1.456-1.618-.112-1.12.169-2.673.447-3.483.448-.559.522-1.689-.224-1.556.505-3.139.338-2.295.202-.15.84-1.37.376-1.016h-.001l.91-2.465 2.519-1.43.152-.218 1.974-2.83.979-1.905v.001l.492-.956.767-1.492.315-.741.054-.124.074-.175.447-1.049.047-.11.07-.165.275.331v.001l.214.258.725.876.073.088.513.219v-.001l.715.305.378.16.068.03.229.097.927.343.046.017.202.075.671.746.28.497.896.497.502.187.391-.684.617-.373 1.095-1.217.079-.088-.111-1.244-2.07-3.482M43.254 415.34l21.11.66 6.636-.22-1.206-8.132L1 407v8.534l17.523-.193h24.73"/>
            <path fill="#E28305" d="M40.322 428.529 72 430v-7.775L1 421v7.175l4.294.564 35.028-.21"/>
            <path fill="#230700" d="M56.158 445 71 443.773v-7.16H60.399L25.262 436 1 436.19v8.587l11.54-.186 43.618.409"/>
            <path d="M37.62 461.486 70.278 463l2.722-.504-.908-7.566-40.217-1.765s-25.769-.41-30.875.063v8.967l.03.3 36.59-1.009" fill="#E28305"/>
            <path d="M26.817 416.488s-.972 1.268-.796 1.756c.177.488 1.857 1.756 1.857 1.756l1.68-.293.442-1.756L28.408 416l-1.591.488M31.645 416.762c-.373.762-.84 1.62-.56 1.81.28.19.839 1.238.839 1.238l1.958.19L35 418.763v-2.096L33.23 416s-1.213 0-1.585.762" fill="#230700"/>
            <path fill="#E28305" d="M37.372 416.227 36 417.704l.196 1.705 1.274 1.25 2.55.341.98-1.705v-2.613L39.04 416l-1.668.227"/>
            <path fill="#230700" d="M43.696 416.7 43 418.4l.608 1.2 1.566.4 1.565-.8.261-2-1.913-1.2-1.391.7M51.292 416l-1.563.667-.729 1.618.729 1.43 2.083.285 1.667-.762.521-2-.834-.667-1.874-.571M55.938 416.465 55 418.209l.52 2.094 2.188.697 1.563-.58.729-2.792L57.812 416l-1.874.465M61.585 417.1 61 418.9l.976 1 1.951.1 1.073-.8v-1.8l-1.463-1.4-1.952 1.1M68 416.084l-1.455.904-.545 1.707.727 1.205 1.546.1s1.182 0 1.272-.3c.091-.302.455-2.31.455-2.31l-1.182-1.004s-.909-.603-.818-.302M26.817 431.487s-.972 1.269-.796 1.757c.177.487 1.857 1.756 1.857 1.756l1.68-.293.442-1.756L28.408 431l-1.591.487M31.644 431.762c-.372.762-.838 1.619-.559 1.81.28.19.839 1.238.839 1.238l1.957.19L35 433.762v-2.095L33.229 431s-1.212 0-1.585.762M38.372 431.227 37 432.705l.196 1.705 1.274 1.249 2.55.341.98-1.704v-2.614L40.04 431l-1.668.227M43.696 431.7 43 433.4l.608 1.2 1.566.4 1.565-.8.261-2-1.913-1.2-1.391.7M51.292 431l-1.563.666-.729 1.62.73 1.429 2.082.285 1.667-.762.521-2-.834-.667-1.874-.571M55.938 431.466 55 433.209l.521 2.093 2.187.698 1.563-.582.729-2.79L57.812 431l-1.874.466M61.586 432.1 61 433.9l.976 1 1.951.1 1.073-.8v-1.8l-1.463-1.4-1.951 1.1M69 431.084l-1.455.904-.545 1.707.727 1.205 1.546.1s1.182 0 1.272-.3c.091-.302.455-2.31.455-2.31l-1.182-1.004s-.909-.603-.818-.302M26.817 447.488s-.972 1.268-.796 1.755c.177.488 1.857 1.757 1.857 1.757l1.68-.293.442-1.756L28.409 447l-1.592.488"/>
            <path d="M31.644 447.762c-.372.762-.838 1.62-.559 1.809.28.191.84 1.239.84 1.239l1.956.19L35 449.762v-2.095L33.23 447s-1.213 0-1.586.762" fill="#E28305"/>
            <path fill="#230700" d="M38.373 447.226 37 448.704l.197 1.705 1.273 1.25 2.55.341.98-1.704v-2.614L40.04 447l-1.667.226M43.695 447.7 43 449.4l.609 1.2 1.565.4 1.566-.8.26-2-1.913-1.2-1.392.7"/>
            <path fill="#E28305" d="m51.292 447-1.563.666-.729 1.62.73 1.429 2.083.285 1.666-.762.521-2-.833-.667-1.875-.571M55.938 447.466 55 449.209l.521 2.093 2.187.698 1.563-.581.729-2.79L57.813 447l-1.875.466"/>
            <path fill="#230700" d="M61.585 448.1 61 449.9l.975 1 1.952.1 1.073-.8v-1.8l-1.463-1.4-1.952 1.1M68 447.084l-1.455.904-.545 1.707.727 1.204 1.546.101s1.182 0 1.273-.3c.09-.302.454-2.31.454-2.31l-1.182-1.005s-.909-.602-.818-.3M2.372 416.227 1 417.704l.196 1.705 1.275 1.25L5.02 421l.98-1.705v-2.613L4.039 416l-1.667.227M8.696 416.7 8 418.4l.609 1.2 1.565.4 1.565-.8.261-2-1.913-1.2-1.39.7M15.291 416l-1.561.667-.73 1.618.73 1.43 2.082.285 1.667-.762.521-2-.834-.667-1.875-.571M19.937 416.465 19 418.209l.521 2.094 2.188.697 1.562-.58.729-2.792L21.812 416l-1.875.465M2.372 431.227 1 432.705l.196 1.705 1.275 1.249L5.02 436l.98-1.704v-2.614L4.039 431l-1.667.227M8.696 431.7 8 433.4l.609 1.2 1.565.4 1.566-.8.26-2-1.913-1.2-1.39.7M16.292 431l-1.563.666-.729 1.62.73 1.429 2.082.285 1.667-.762.521-2-.834-.667-1.874-.571M19.937 431.466 19 433.209l.521 2.093 2.187.698 1.563-.582.729-2.79L21.812 431l-1.875.466M2.373 447.226 1 448.704l.196 1.705 1.274 1.25 2.55.341.98-1.704v-2.614L4.04 447l-1.667.226M8.695 447.7 8 449.4l.609 1.2 1.565.4 1.565-.8.261-2-1.913-1.2-1.392.7M15.292 447l-1.563.666-.729 1.62.73 1.429 2.083.285 1.666-.762.521-2-.833-.667-1.875-.571M19.938 447.466 19 449.209l.521 2.093 2.187.698 1.563-.581.729-2.79L21.813 447l-1.875.466"/>
            <path fill="#E28305" d="M250.207 408.657 249 416.78l6.641.219 21.132-.658h24.754l18.473.203V408l-69.793.657"/>
            <path fill="#230700" d="M248 424.239V432l31.703-1.468 35.056.21 5.241-.687V423l-72 1.239M294.779 438l-35.168.613H249v7.16L263.856 447l43.656-.409 12.488.201v-8.594L294.779 438"/>
            <path d="m288.195 454.165-40.287 1.766-.908 7.565 2.727.504 32.713-1.514 36.652 1.01.908-9.08c0-.756-31.805-.25-31.805-.25" fill="#E28305"/>
            <path d="M291.591 418 290 419.951l.442 1.756 1.68.293s1.68-1.268 1.857-1.756c.176-.488-.796-1.756-.796-1.756L291.59 418M286.771 418l-1.771.667v2.095l1.118 1.238 1.958-.19s.56-1.048.839-1.238c.28-.19-.187-1.048-.56-1.81-.373-.762-1.584-.762-1.584-.762M279.96 418l-1.96.682v2.613l.98 1.705 2.549-.34 1.275-1.25.196-1.705-1.373-1.478-1.667-.227M274.913 418 273 419.2l.26 2 1.565.8 1.567-.4.608-1.2-.696-1.7-1.391-.7M268.709 418l-1.875.572-.834.666.52 2 1.668.762 2.083-.286.729-1.428-.729-1.62-1.562-.666" fill="#230700"/>
            <path fill="#E28305" d="M262.188 418 260 419.628l.73 2.79 1.562.582 2.188-.697.52-2.094-.937-1.744-1.875-.465"/>
            <path fill="#230700" d="M256.463 418 255 419.4v1.8l1.073.8 1.951-.1.976-1-.586-1.8-1.95-1.1M251 418.084c.092-.301-.818.302-.818.302L249 419.389s.364 2.008.455 2.31c.09.301 1.273.301 1.273.301l1.545-.1.727-1.205-.545-1.708-1.454-.903M291.592 433 290 434.951l.442 1.757 1.68.292s1.68-1.269 1.857-1.756c.176-.488-.796-1.757-.796-1.757l-1.59-.487M286.77 433l-1.77.666v2.096l1.119 1.238 1.957-.191s.559-1.047.839-1.238c.28-.19-.187-1.047-.56-1.81-.372-.761-1.584-.761-1.584-.761"/>
            <path fill="#E28305" d="m279.96 432-1.96.682v2.614l.98 1.704 2.55-.34 1.274-1.25.196-1.705-1.373-1.477-1.666-.228M273.912 433 272 434.2l.26 2 1.566.8 1.565-.4.609-1.2-.696-1.7-1.392-.7M268.707 433l-1.874.572-.833.667.521 1.999 1.666.762 2.084-.286.729-1.428-.73-1.62-1.563-.666"/>
            <path fill="#230700" d="M262.187 433 260 434.627l.729 2.791 1.563.582 2.187-.698.521-2.093-.938-1.744-1.875-.465M256.463 433 255 434.4v1.8l1.073.8 1.952-.1.975-1-.585-1.8-1.952-1.1M251 433.084c.09-.301-.818.302-.818.302L249 434.39s.364 2.008.455 2.309c.09.301 1.272.301 1.272.301l1.545-.1.728-1.205-.546-1.707-1.455-.904M291.59 449l-1.59 1.951.442 1.756 1.68.293s1.68-1.268 1.857-1.756c.176-.488-.796-1.756-.796-1.756L291.59 449M286.77 449l-1.77.666v2.096l1.119 1.238 1.956-.19s.56-1.048.84-1.239c.28-.19-.186-1.047-.559-1.81-.373-.761-1.585-.761-1.585-.761"/>
            <path fill="#E28305" d="m279.961 449-1.961.68v2.616l.98 1.704 2.55-.342 1.274-1.25.196-1.704-1.373-1.478-1.666-.226"/>
            <path fill="#230700" d="M273.913 449 272 450.2l.26 2 1.565.8 1.567-.4.608-1.2-.696-1.7-1.391-.7M268.708 449l-1.874.571-.834.667.521 2 1.667.762 2.082-.286.73-1.428-.73-1.62-1.562-.666M262.188 449 260 450.628l.73 2.791 1.561.581 2.188-.697.521-2.093-.938-1.745-1.874-.465"/>
            <path fill="#E28305" d="M256.464 449 255 450.4v1.8l1.074.8 1.95-.1.976-1-.586-1.8-1.95-1.1"/>
            <path d="M251 449.084c.09-.301-.819.301-.819.301L249 450.39s.364 2.007.454 2.309c.09.301 1.273.301 1.273.301l1.545-.1.728-1.206-.545-1.706-1.455-.904M315.96 418l-1.96.682v2.613l.98 1.705 2.55-.34 1.274-1.25.196-1.705-1.373-1.478-1.667-.227M309.913 418 308 419.2l.261 2 1.565.8 1.565-.4.609-1.2-.695-1.7-1.392-.7M303.708 418l-1.874.572-.834.666.521 2 1.667.762 2.083-.286.729-1.428-.729-1.62-1.563-.666M297.188 418 295 419.628l.73 2.79 1.562.582 2.187-.697.521-2.094-.938-1.744-1.874-.465M315.96 432l-1.96.682v2.614l.98 1.704 2.55-.34 1.274-1.25.196-1.705-1.373-1.477-1.666-.228M309.913 433 308 434.2l.261 2 1.565.8 1.565-.4.609-1.2-.695-1.7-1.392-.7M303.708 433l-1.875.572-.833.667.521 1.999 1.666.762 2.084-.286.729-1.428-.73-1.62-1.562-.666M297.187 433 295 434.627l.73 2.791 1.562.582 2.188-.698.52-2.093-.937-1.744-1.876-.465M315.961 449l-1.961.68v2.616l.98 1.704 2.55-.342 1.275-1.25.195-1.704-1.372-1.478-1.667-.226M309.913 449 308 450.2l.26 2 1.566.8 1.566-.4.608-1.2-.696-1.7-1.39-.7" fill="#230700"/>
            <path fill="#E28305" d="m303.709 449-1.875.571-.834.667.521 2 1.667.762 2.083-.286.729-1.428-.73-1.62-1.561-.666"/>
            <path fill="#230700" d="M297.188 449 295 450.628l.73 2.791 1.563.581 2.186-.697.521-2.093-.938-1.745-1.874-.465"/>
            <path fill="#E28305" d="m25 392.8-5.965-1.05L1.141 391H1v2.622l22.881.378L25 392.8M38.252 393.233s28.118 1.131 28.118.646.63-2.749.63-2.749L38 390l.252 3.233M74 393.376l14.086.624.914-1.999L74 391v2.376M257.38 395l30.62-.188v-1.875L257 392l.38 3M300 391.827l.186 3.173 19.814-.28V391l-20 .827M230.2 43.732l.2 7.268 2-.485.6-31.736V0h-2.907L229 10.784l1.2 32.948M232.2 55l-2.2.212.2 28.788 2.8-1.905-.8-17.358V55M245.116 140l22.698-.222L268 136l-24 .889 1.116 3.111M312.822 135.222c-.56 0-26.822-.222-26.822-.222l.56 4h25.89s.93-3.778.372-3.778M75.292 48 78 47.774l-1.667-27.009V0H73v15.545L75.292 48M75 65.7l3 1.3V54.65L75.53 54c0 .65-.53 11.7-.53 11.7M76 74.76 77.667 76 78 70.621 76.167 70 76 74.76M53.188 141l17.25-.222.562-2.89L53 137l.188 4M88 140.75l14.81.25.19-2.5-14.24-.5-.76 2.75M17.186 140H35v-4l-18 .47.186 3.53M57.8 133l3-.421L61 129l-4 1.473.8 2.527M25 120.444 26.964 122 30 118.444 26.25 116 25 120.444M92 132.904s2.222.216 2.778 0C95.334 132.687 97 129 97 129l-5 .65v3.254M63 121.111 64.482 124l2.222-1.11L68 119.11 64.667 118 63 121.111M55 39.5l1.964 2.5 2.143-.455L60 37.91 57.143 37 55 39.5M217 134.333l1.687 2.667 2.625-.666 1.688-3.779-3.563-1.555-2.437 3.333M262.923 81.2 261 84l3.846 1L266 81.8l-1.539-.8-1.538.2M240 20.466s.8 1.732 1.8 1.515c1-.216 1.4.217 2-.65.6-.865 1.2-3.898 1.2-3.898L241.2 17l-1.2 3.466M306 128.4l2.2.6 1.8-4-3 .6-1 2.8M301.611 120l-1.535 1.778s-.171 2.222 0 3.11c.17.89 1.876 1.112 1.876 1.112l2.048-1.334-.682-3.555L301.61 120M274 385.74l1.154 3.26 3.46-.218.386-2.39-2.115-2.392-2.885 1.74M282 380.556c1.235.853 2.294.214 2.294.214L285 378l-2.471.214-.529 2.342M38 381l.417 2.2 1.875.8 2.083-.6.625-3.2-2.708-.2L38 381"/>
            <path d="M180.33 87.25s-.743 2.248 0 2.748c.742.502 1.237 2.002 2.226 2.002h3.218s1.732-.752 1.98-1.5c.246-.751.246-4 .246-4l-4.207-1.5c-.743 0-3.463 2.25-3.463 2.25" fill="#B5362C"/>
            <path d="m148 269 6.125 5.485L157.88 277l7.12-7.823h-9.167s-4.262-.101-7.833-.177" fill="#7A1D16"/>
            <path fill="#A4231C" d="M218.5 245.501v-.002.002M218.5 245.501v-.002.002M219 241l-2-.338c.083-.33.127-.543.127-.625 0-.445.78-2.45 1.873-5.037v6"/>
            <path fill="#4A120E" d="m111 310-5.014-16.068L105 287l.986 6.932L111 310"/>
            <path d="M193.122 307c.672-1.453 1.33-2.883 1.967-4.269l3.886-1.377 1.025.412v2.081L193.122 307m-74.041-.297-5.42-2.367-.661 1.948 1.531-4.518c.15-.052.737-.338 1.59-.766-.853.428-1.44.714-1.59.766l-.283.845 3.458 1.46c.442.848.901 1.728 1.375 2.632" fill="#281200"/>
            <path d="m118.47 305-3.47-1.453.284-.841c.15-.052.74-.336 1.595-.763a618.93 618.93 0 0 0 1.59 3.057m77.625-1.333c.422-.91.835-1.802 1.234-2.667l.367.38 2.305.913-.008.003-3.898 1.37" fill="#D3B990"/>
            <path fill="#D96356" d="M185 76h-2v-9l.704 1.708L185 76"/>
            <path fill="#CD7165" d="M154 120v-1.836l3.244-1.164 2.756 1.94-6 1.06"/>
        </g>
    </g>
</svg>
